<svg width="237" height="237" viewBox="0 0 237 237" fill="none" xmlns="http://www.w3.org/2000/svg">
<path d="M124.662 209V230.818H111.579V228.474H122.02V221.102H112.559V218.759H122.02V209H124.662Z" fill="black"/>
<path d="M101.56 207.461L97.9183 223.414L95.5502 222.874L96.1002 220.464L95.934 220.426C95.463 221.149 94.7906 221.67 93.9167 221.987C93.0429 222.305 92.1282 222.355 91.1726 222.137C90.9926 222.096 90.7683 222.041 90.4999 221.972C90.2314 221.904 90.0295 221.847 89.8942 221.801L90.4631 219.309C90.5415 219.348 90.7248 219.423 91.013 219.532C91.2928 219.647 91.5954 219.742 91.9208 219.816C92.6963 219.993 93.4259 219.988 94.1095 219.802C94.7846 219.621 95.3635 219.287 95.8463 218.8C96.3205 218.318 96.6398 217.717 96.8041 216.997L99.1084 206.901L101.56 207.461Z" fill="black"/>
<path d="M78.9927 199.543C80.4133 200.227 81.4877 201.131 82.2159 202.254C82.9347 203.381 83.2997 204.644 83.3109 206.045C83.3127 207.449 82.95 208.906 82.2227 210.416C81.4955 211.927 80.5794 213.125 79.4744 214.012C78.3599 214.902 77.1512 215.431 75.8481 215.6C74.5355 215.772 73.2138 215.537 71.8828 214.897C71.1149 214.527 70.4183 214.034 69.7929 213.417C69.1674 212.801 68.6863 212.056 68.3493 211.185C68.0093 210.319 67.8834 209.329 67.9716 208.212C68.0599 207.096 68.4353 205.85 69.0978 204.474L69.56 203.514L80.9245 208.987L79.9816 210.945L70.9207 206.582C70.5201 207.414 70.329 208.236 70.3474 209.049C70.3595 209.859 70.5785 210.599 71.0046 211.269C71.4243 211.936 72.0437 212.467 72.8627 212.862C73.765 213.296 74.6535 213.448 75.5283 213.318C76.3936 213.19 77.1733 212.856 77.8673 212.316C78.5613 211.775 79.1039 211.098 79.4953 210.285L80.1239 208.98C80.6601 207.867 80.9227 206.83 80.9116 205.871C80.8911 204.915 80.6323 204.069 80.1354 203.333C79.6354 202.604 78.9278 202.019 78.0128 201.578C77.4177 201.292 76.8401 201.116 76.2801 201.051C75.7105 200.99 75.1681 201.044 74.6529 201.214C74.1345 201.39 73.6561 201.687 73.2176 202.107L71.325 200.439C71.9128 199.807 72.6143 199.341 73.4294 199.04C74.2414 198.745 75.1228 198.634 76.0737 198.705C77.0215 198.783 77.9945 199.063 78.9927 199.543Z" fill="black"/>
<path d="M61.9494 188.72C63.1821 189.703 64.0285 190.823 64.4885 192.08C64.9386 193.339 65.0133 194.652 64.7126 196.02C64.4019 197.389 63.724 198.729 62.679 200.039C61.6339 201.35 60.4741 202.314 59.1995 202.933C57.9149 203.553 56.6186 203.8 55.3107 203.675C53.9928 203.55 52.7563 203.027 51.6013 202.106C50.935 201.575 50.3656 200.939 49.893 200.199C49.4205 199.459 49.1169 198.626 48.9824 197.701C48.8434 196.782 48.9412 195.788 49.2756 194.719C49.6101 193.651 50.2533 192.519 51.2054 191.326L51.8696 190.493L61.7313 198.357L60.3763 200.056L52.5136 193.786C51.9379 194.508 51.5686 195.267 51.4057 196.064C51.2372 196.856 51.2861 197.626 51.5523 198.375C51.813 199.118 52.2987 199.774 53.0095 200.341C53.7924 200.965 54.6249 201.311 55.5068 201.378C56.3787 201.447 57.2131 201.295 58.0101 200.922C58.807 200.549 59.4867 200.01 60.049 199.305L60.9524 198.172C61.7229 197.206 62.2095 196.254 62.4121 195.316C62.6048 194.38 62.5408 193.498 62.22 192.67C61.8949 191.847 61.3353 191.119 60.5412 190.486C60.0248 190.074 59.5008 189.774 58.9692 189.587C58.4277 189.4 57.8868 189.332 57.3467 189.383C56.8022 189.439 56.2695 189.623 55.7487 189.934L54.2747 187.887C54.9883 187.402 55.7759 187.104 56.6376 186.991C57.4948 186.885 58.379 186.972 59.2901 187.254C60.1967 187.541 61.0832 188.029 61.9494 188.72Z" fill="black"/>
<path d="M36.9023 157.249C37.1303 157.722 37.1564 158.21 36.9806 158.713C36.8048 159.215 36.4801 159.581 36.0066 159.809C35.5331 160.037 35.0451 160.063 34.5426 159.887C34.0401 159.711 33.6749 159.387 33.4469 158.913C33.2188 158.439 33.1927 157.951 33.3685 157.449C33.5443 156.947 33.869 156.581 34.3425 156.353C34.6561 156.202 34.9826 156.144 35.322 156.177C35.6583 156.204 35.9696 156.311 36.2559 156.496C36.5327 156.678 36.7482 156.929 36.9023 157.249Z" fill="black"/>
<path d="M11.6364 113.492C10.5568 113.619 9.71875 114.138 9.12216 115.047C8.52557 115.956 8.22727 117.071 8.22727 118.392C8.22727 119.358 8.38352 120.203 8.69602 120.928C9.00852 121.645 9.43821 122.206 9.98508 122.611C10.532 123.009 11.1534 123.207 11.8494 123.207C12.4318 123.207 12.9325 123.069 13.3516 122.792C13.7635 122.508 14.108 122.146 14.3849 121.705C14.6548 121.265 14.8786 120.803 15.0561 120.32C15.2266 119.837 15.3651 119.394 15.4716 118.989L16.0682 116.773C16.2173 116.205 16.4233 115.573 16.6861 114.877C16.9489 114.173 17.3075 113.502 17.7621 112.863C18.2095 112.217 18.7848 111.684 19.4879 111.265C20.1911 110.846 21.054 110.636 22.0767 110.636C23.2557 110.636 24.321 110.945 25.2727 111.563C26.2244 112.174 26.9808 113.069 27.5419 114.248C28.103 115.42 28.3835 116.844 28.3835 118.52C28.3835 120.082 28.1314 121.435 27.6271 122.579C27.1229 123.715 26.4197 124.61 25.5178 125.264C24.6158 125.91 23.5682 126.276 22.375 126.361V123.634C23.1989 123.563 23.8807 123.286 24.4205 122.803C24.9531 122.313 25.3509 121.695 25.6136 120.949C25.8693 120.196 25.9972 119.386 25.9972 118.52C25.9972 117.511 25.8338 116.606 25.5071 115.803C25.1733 115.001 24.7116 114.365 24.1222 113.896C23.5256 113.428 22.8295 113.193 22.0341 113.193C21.3097 113.193 20.7202 113.396 20.2656 113.801C19.8111 114.205 19.4418 114.738 19.1577 115.399C18.8736 116.059 18.625 116.773 18.4119 117.54L17.6449 120.225C17.1548 121.929 16.4553 123.278 15.5462 124.273C14.6371 125.267 13.4474 125.764 11.9773 125.764C10.7557 125.764 9.69034 125.434 8.78125 124.774C7.86506 124.106 7.15483 123.211 6.65057 122.089C6.1392 120.96 5.88352 119.699 5.88352 118.307C5.88352 116.901 6.13565 115.651 6.63991 114.557C7.13707 113.463 7.81889 112.597 8.68537 111.957C9.55185 111.311 10.5355 110.97 11.6364 110.935V113.492Z" fill="black"/>
<path d="M30.6974 98.0171C30.3466 99.5542 29.7046 100.803 28.7716 101.763C27.8332 102.714 26.6825 103.351 25.3194 103.674C23.951 103.988 22.4497 103.959 20.8156 103.586C19.1815 103.213 17.8092 102.586 16.6988 101.706C15.583 100.818 14.7979 99.7571 14.3436 98.5242C13.8838 97.2829 13.8183 95.9421 14.1471 94.5018C14.3367 93.6709 14.6625 92.882 15.1243 92.1351C15.5862 91.3882 16.2046 90.7535 16.9795 90.231C17.7475 89.7069 18.6854 89.3637 19.7934 89.2013C20.9013 89.039 22.1996 89.1277 23.6883 89.4675L24.727 89.7045L21.9202 102.002L19.8014 101.518L22.0392 91.7137C21.1391 91.5082 20.2948 91.5049 19.5063 91.7038C18.7194 91.8957 18.0467 92.2739 17.488 92.8385C16.9309 93.3961 16.5512 94.1181 16.3489 95.0044C16.1261 95.9807 16.1756 96.8808 16.4976 97.7046C16.8141 98.5199 17.3132 99.2057 17.9949 99.7619C18.6766 100.318 19.4571 100.697 20.3365 100.897L21.749 101.22C22.9538 101.495 24.0226 101.52 24.9552 101.296C25.8825 101.063 26.6496 100.623 27.2565 99.9745C27.8565 99.3247 28.2695 98.5047 28.4955 97.5145C28.6425 96.8706 28.6852 96.2684 28.6237 95.708C28.5569 95.1391 28.3834 94.6223 28.1034 94.1577C27.8164 93.6915 27.4196 93.2914 26.9131 92.9572L28.1183 90.7409C28.8646 91.1735 29.4753 91.7536 29.9503 92.4812C30.4184 93.2073 30.7233 94.0418 30.865 94.9847C30.9998 95.9261 30.9439 96.9369 30.6974 98.0171Z" fill="black"/>
<path d="M37.7292 78.4267C37.0636 79.8089 36.1641 80.8419 35.0307 81.5259C33.8973 82.2098 32.6284 82.5447 31.2242 82.5306C29.8199 82.5165 28.3819 82.1551 26.9101 81.4463C25.4128 80.7252 24.2239 79.8137 23.3435 78.7118C22.4598 77.6004 21.9336 76.3932 21.765 75.0901C21.593 73.7776 21.8275 72.4558 22.4685 71.1249C22.9677 70.0882 23.6096 69.2464 24.3941 68.5995C25.1786 67.9525 26.0443 67.5299 26.9912 67.3316C27.9381 67.1333 28.903 67.192 29.8861 67.5078L28.7952 69.773C28.0401 69.6222 27.2601 69.7195 26.4552 70.065C25.647 70.401 25.0026 71.0682 24.5218 72.0664C24.0966 72.9494 23.9541 73.8347 24.0943 74.722C24.2312 75.5999 24.6263 76.4247 25.2794 77.1964C25.9292 77.9587 26.8108 78.6079 27.9242 79.1441C29.0632 79.6926 30.1414 79.9911 31.1586 80.0395C32.1789 80.0816 33.0813 79.8855 33.8658 79.4514C34.6534 79.0108 35.2629 78.3427 35.6944 77.4468C35.9779 76.8581 36.1328 76.2745 36.1591 75.696C36.1855 75.1174 36.0868 74.5693 35.8631 74.0517C35.6394 73.5341 35.2927 73.0754 34.823 72.6758L35.9139 70.4106C36.7225 70.9577 37.3538 71.6519 37.8079 72.4933C38.2586 73.3252 38.49 74.2525 38.502 75.2752C38.5107 76.2884 38.2531 77.3389 37.7292 78.4267Z" fill="black"/>
<path d="M44.9438 54.8554L37.3809 48.8242L38.9485 46.8585L51.7421 57.0611L50.1745 59.0267L48.0089 57.2997L47.9026 57.433C48.3132 58.251 48.4937 59.158 48.4442 60.1541C48.3892 61.1458 47.9764 62.1248 47.2059 63.091C46.5683 63.8906 45.8265 64.4618 44.9808 64.8048C44.1294 65.1433 43.2067 65.2068 42.2125 64.9954C41.2128 64.7795 40.1688 64.2376 39.0804 63.3697L30.9512 56.8868L32.5187 54.9211L40.5147 61.2977C41.4476 62.0417 42.3998 62.3741 43.3713 62.2949C44.3473 62.2102 45.1607 61.7598 45.8117 60.9435C46.2014 60.4548 46.4728 59.8582 46.6258 59.1537C46.7834 58.4435 46.7412 57.7104 46.4993 56.9543C46.2619 56.1927 45.7434 55.493 44.9438 54.8554Z" fill="black"/>
<path d="M59.5098 49.7892L49.3073 36.9956L51.2063 35.4812L52.7473 37.4136L52.8806 37.3073C52.609 36.4883 52.6214 35.6381 52.9178 34.7568C53.2142 33.8754 53.7456 33.1292 54.5118 32.5181C54.6562 32.403 54.8389 32.2618 55.0599 32.0947C55.2809 31.9275 55.4513 31.8052 55.5712 31.7278L57.1654 33.7268C57.0855 33.7633 56.9128 33.86 56.6475 34.0171C56.3833 34.1643 56.1207 34.3419 55.8597 34.55C55.2378 35.046 54.7866 35.6193 54.5061 36.2699C54.2267 36.9106 54.1269 37.5715 54.2068 38.2527C54.2879 38.9239 54.5587 39.5482 55.0192 40.1257L61.4755 48.2217L59.5098 49.7892Z" fill="black"/>
<path d="M79.7702 37.0823C78.3496 37.7664 76.9732 38.0429 75.641 37.912C74.3121 37.7715 73.0966 37.269 71.9944 36.4045C70.8956 35.5305 69.9826 34.3385 69.2553 32.8283C68.5281 31.3182 68.1623 29.8547 68.1579 28.4379C68.1568 27.0116 68.4966 25.7364 69.1772 24.6125C69.8611 23.4791 70.8686 22.5919 72.1995 21.9509C72.9674 21.5812 73.7873 21.344 74.6592 21.2394C75.5312 21.1348 76.413 21.2225 77.3046 21.5026C78.1932 21.7763 79.0463 22.2956 79.864 23.0606C80.6818 23.8256 81.4219 24.896 82.0844 26.2718L82.5467 27.2316L71.1822 32.7045L70.2392 30.7464L79.3001 26.3829C78.8995 25.551 78.3757 24.8889 77.7286 24.3964C77.0879 23.9009 76.3727 23.6107 75.583 23.526C74.7997 23.4381 73.9985 23.5914 73.1795 23.9858C72.2772 24.4203 71.6044 25.0202 71.161 25.7855C70.721 26.5414 70.496 27.3592 70.4861 28.239C70.4762 29.1187 70.6669 29.9649 71.0583 30.7776L71.6869 32.083C72.2231 33.1964 72.8696 34.0478 73.6264 34.6372C74.3866 35.2171 75.2092 35.5422 76.0945 35.6125C76.9766 35.6764 77.8752 35.4881 78.7902 35.0474C79.3853 34.7608 79.8828 34.4188 80.2826 34.0213C80.6857 33.6143 80.9816 33.1565 81.1702 32.6479C81.3557 32.1329 81.4212 31.5732 81.3667 30.9688L83.8509 30.5292C83.978 31.3824 83.9052 32.2215 83.6325 33.0466C83.3567 33.8652 82.8943 34.6239 82.2454 35.3227C81.5935 36.015 80.7684 36.6015 79.7702 37.0823Z" fill="black"/>
<path d="M119.003 28.1705C118.477 28.1705 118.026 27.9822 117.65 27.6058C117.273 27.2294 117.085 26.7784 117.085 26.2528C117.085 25.7273 117.273 25.2763 117.65 24.8999C118.026 24.5234 118.477 24.3352 119.003 24.3352C119.528 24.3352 119.979 24.5234 120.356 24.8999C120.732 25.2763 120.92 25.7273 120.92 26.2528C120.92 26.6009 120.831 26.9205 120.654 27.2116C120.483 27.5028 120.253 27.7372 119.961 27.9148C119.677 28.0852 119.358 28.1705 119.003 28.1705Z" fill="black"/>
<path d="M152.261 34.3112L149.766 33.1094L166.45 16.9279L168.908 18.1112L166.659 41.2447L164.163 40.0429L166.258 20.6664L166.105 20.5925L152.261 34.3112ZM156.881 27.0763L166.94 31.9205L165.923 34.0321L155.864 29.1879L156.881 27.0763Z" fill="black"/>
<path d="M177.968 37.5797L171.83 45.2758L169.865 43.7082L180.067 30.9146L181.966 32.4291L180.372 34.4281L180.539 34.5609C181.357 34.1504 182.228 33.9915 183.154 34.0844C184.083 34.1717 185.031 34.6006 185.997 35.3711C186.864 36.0619 187.48 36.844 187.846 37.7175C188.217 38.5854 188.297 39.5214 188.087 40.5256C187.881 41.5242 187.344 42.5676 186.476 43.656L179.993 51.7853L178.027 50.2177L184.404 42.2217C185.205 41.2166 185.569 40.2255 185.494 39.2485C185.424 38.2658 184.933 37.4114 184.023 36.6852C183.395 36.1848 182.726 35.8736 182.015 35.7516C181.309 35.634 180.607 35.7232 179.907 36.0194C179.208 36.3155 178.561 36.8356 177.968 37.5797Z" fill="black"/>
<path d="M188.988 62.2857C188.067 61.1307 187.534 59.8981 187.389 58.588C187.247 57.2833 187.476 55.9926 188.075 54.7157C188.678 53.4444 189.64 52.2818 190.962 51.2279C192.295 50.1651 193.651 49.479 195.03 49.1694C196.413 48.8654 197.726 48.9273 198.966 49.3552C200.211 49.7886 201.294 50.5827 202.215 51.7377C203.136 52.8927 203.667 54.1225 203.808 55.4271C203.954 56.7373 203.722 58.0303 203.114 59.306C202.509 60.5873 201.541 61.7593 200.208 62.8221C198.887 63.876 197.537 64.5527 196.159 64.8523C194.785 65.1574 193.476 65.0933 192.231 64.6599C190.99 64.2321 189.909 63.4407 188.988 62.2857ZM190.754 60.8775C191.454 61.7549 192.254 62.2974 193.156 62.5051C194.057 62.7128 194.983 62.6604 195.933 62.348C196.883 62.0355 197.785 61.5384 198.641 60.8564C199.496 60.1745 200.184 59.403 200.706 58.5419C201.227 57.6809 201.49 56.7856 201.493 55.8561C201.497 54.9266 201.149 54.0232 200.449 53.1459C199.75 52.2686 198.946 51.7282 198.039 51.525C197.132 51.3217 196.201 51.3785 195.246 51.6954C194.29 52.0122 193.385 52.5116 192.53 53.1936C191.675 53.8755 190.989 54.6448 190.473 55.5014C189.957 56.358 189.7 57.2488 189.702 58.1739C189.704 59.099 190.055 60.0002 190.754 60.8775Z" fill="black"/>
<path d="M207.189 71.3955L198.32 75.6665L197.229 73.4013L211.972 66.3014L213.026 68.4898L210.722 69.5992L210.815 69.7911C211.73 69.7761 212.584 70.0112 213.377 70.4963C214.177 70.9783 214.845 71.776 215.381 72.8894C215.862 73.8876 216.078 74.8597 216.029 75.8056C215.986 76.7484 215.652 77.6265 215.027 78.44C214.409 79.2504 213.472 79.9575 212.218 80.5615L202.85 85.0729L201.759 82.8077L210.973 78.3703C212.132 77.8125 212.889 77.0773 213.246 76.1645C213.609 75.2487 213.537 74.2661 213.032 73.2167C212.684 72.4936 212.216 71.9228 211.628 71.5043C211.043 71.0922 210.372 70.8678 209.613 70.8311C208.854 70.7944 208.046 70.9825 207.189 71.3955Z" fill="black"/>
<path d="M199.872 95.8866C199.777 95.4712 199.727 95.0928 199.722 94.7516C199.71 94.4119 199.721 94.1726 199.755 94.0338L202.058 94.1639C202.041 94.7941 202.106 95.333 202.252 95.7805C202.398 96.228 202.694 96.5865 203.142 96.8559C203.584 97.1337 204.244 97.3291 205.122 97.4419L206.473 97.6145L221.163 88.0548L221.77 90.7137L210.062 98.0191L210.1 98.1853L223.818 99.6875L224.425 102.346L204.599 99.7468C203.706 99.6302 202.938 99.4085 202.295 99.0817C201.645 98.7564 201.121 98.3261 200.722 97.7907C200.324 97.2622 200.041 96.6275 199.872 95.8866Z" fill="black"/>
<path d="M209 108.264H225.364V110.693H222.807V110.906C223.68 111.247 224.359 111.797 224.842 112.557C225.332 113.317 225.577 114.23 225.577 115.295C225.577 116.375 225.332 117.273 224.842 117.991C224.359 118.715 223.68 119.28 222.807 119.684V119.855C223.652 120.274 224.323 120.903 224.82 121.741C225.325 122.579 225.577 123.584 225.577 124.756C225.577 126.219 225.119 127.415 224.202 128.346C223.293 129.276 221.876 129.741 219.952 129.741H209V127.227H219.952C221.159 127.227 222.022 126.897 222.54 126.236C223.059 125.576 223.318 124.798 223.318 123.903C223.318 122.753 222.97 121.861 222.274 121.229C221.585 120.597 220.712 120.281 219.653 120.281H209V117.724H220.207C221.138 117.724 221.887 117.422 222.455 116.819C223.031 116.215 223.318 115.437 223.318 114.486C223.318 113.832 223.144 113.221 222.796 112.653C222.448 112.092 221.965 111.638 221.347 111.29C220.737 110.949 220.03 110.778 219.227 110.778H209V108.264Z" fill="black"/>
<path d="M206.399 138.561C206.728 137.121 207.359 135.935 208.292 135.005C209.224 134.081 210.376 133.455 211.748 133.127C213.118 132.806 214.627 132.833 216.275 133.21C217.937 133.589 219.318 134.221 220.42 135.107C221.521 135.999 222.29 137.063 222.729 138.3C223.167 139.543 223.221 140.885 222.892 142.326C222.564 143.766 221.933 144.948 221.001 145.871C220.068 146.802 218.912 147.427 217.535 147.747C216.157 148.073 214.637 148.047 212.975 147.667C211.327 147.291 209.956 146.658 208.863 145.767C207.768 144.883 207.002 143.82 206.564 142.576C206.125 141.34 206.07 140.001 206.399 138.561ZM208.601 139.064C208.351 140.158 208.426 141.122 208.826 141.956C209.225 142.79 209.844 143.481 210.68 144.029C211.517 144.577 212.468 144.973 213.534 145.216C214.601 145.46 215.633 145.517 216.631 145.388C217.63 145.259 218.493 144.906 219.222 144.329C219.951 143.752 220.441 142.917 220.69 141.823C220.94 140.729 220.862 139.764 220.455 138.928C220.049 138.092 219.424 137.4 218.58 136.85C217.737 136.301 216.782 135.904 215.715 135.661C214.649 135.417 213.62 135.361 212.629 135.492C211.637 135.622 210.781 135.977 210.058 136.555C209.336 137.133 208.851 137.97 208.601 139.064Z" fill="black"/>
<path d="M204.374 164.181L213.09 168.378L211.999 170.643L197.256 163.544L198.346 161.278L200.842 162.48L200.916 162.327C200.334 161.62 199.956 160.776 199.782 159.794C199.615 158.815 199.8 157.769 200.336 156.655C200.78 155.734 201.376 155.012 202.124 154.489C202.879 153.97 203.764 153.703 204.781 153.688C205.803 153.676 206.942 153.972 208.196 154.576L217.564 159.087L216.473 161.352L207.259 156.915C206.184 156.397 205.181 156.285 204.252 156.578C203.319 156.878 202.626 157.498 202.173 158.439C201.902 159.002 201.77 159.644 201.778 160.365C201.782 161.092 201.987 161.798 202.391 162.481C202.792 163.171 203.453 163.737 204.374 164.181Z" fill="black"/>
<path d="M195.409 187.578L196.317 185.413C196.7 185.537 197.117 185.601 197.567 185.606C198.018 185.621 198.482 185.518 198.957 185.298C199.433 185.077 199.899 184.681 200.355 184.109C200.979 183.326 201.319 182.53 201.374 181.72C201.431 180.92 201.184 180.301 200.635 179.863C200.146 179.473 199.618 179.343 199.052 179.473C198.485 179.602 197.806 179.969 197.015 180.574L195.034 182.101C193.844 183.023 192.74 183.537 191.721 183.642C190.707 183.751 189.753 183.449 188.859 182.736C188.126 182.152 187.639 181.418 187.398 180.535C187.153 179.658 187.163 178.712 187.427 177.697C187.692 176.682 188.221 175.677 189.013 174.683C190.054 173.378 191.198 172.524 192.447 172.121C193.695 171.717 194.954 171.835 196.224 172.476L195.203 174.713C194.372 174.342 193.588 174.266 192.85 174.486C192.107 174.711 191.414 175.226 190.772 176.031C190.042 176.948 189.656 177.83 189.615 178.679C189.575 179.537 189.83 180.186 190.38 180.624C190.824 180.978 191.32 181.119 191.868 181.048C192.422 180.98 193.03 180.684 193.694 180.16L195.894 178.426C197.106 177.476 198.223 176.958 199.244 176.873C200.267 176.799 201.219 177.113 202.102 177.817C202.824 178.393 203.301 179.105 203.533 179.953C203.761 180.807 203.751 181.713 203.506 182.67C203.255 183.633 202.771 184.565 202.054 185.464C201.044 186.73 199.974 187.503 198.843 187.782C197.708 188.066 196.563 187.998 195.409 187.578Z" fill="black"/>
<path d="M157.249 200.098C157.722 199.87 158.21 199.844 158.713 200.019C159.215 200.195 159.581 200.52 159.809 200.993C160.037 201.467 160.063 201.955 159.887 202.457C159.711 202.96 159.387 203.325 158.913 203.553C158.439 203.781 157.951 203.807 157.449 203.631C156.947 203.456 156.581 203.131 156.353 202.657C156.202 202.344 156.144 202.017 156.177 201.678C156.204 201.342 156.311 201.03 156.496 200.744C156.678 200.467 156.929 200.252 157.249 200.098Z" fill="black"/>
</svg>
