<svg xmlns="http://www.w3.org/2000/svg" viewBox="0 0 500 500"><g id="freepik--background-complete--inject-42"><rect x="416.78" y="398.49" width="33.12" height="0.25" style="fill:#ebebeb"></rect><rect x="322.53" y="401.21" width="8.69" height="0.25" style="fill:#ebebeb"></rect><rect x="396.59" y="389.21" width="19.19" height="0.25" style="fill:#ebebeb"></rect><rect x="52.46" y="390.89" width="43.19" height="0.25" style="fill:#ebebeb"></rect><rect x="104.56" y="390.89" width="6.33" height="0.25" style="fill:#ebebeb"></rect><rect x="131.47" y="395.11" width="93.68" height="0.25" style="fill:#ebebeb"></rect><path d="M238.4,337.8H45.3a5.71,5.71,0,0,1-5.71-5.71V60.66A5.71,5.71,0,0,1,45.3,55H238.4a5.71,5.71,0,0,1,5.71,5.71V332.09A5.71,5.71,0,0,1,238.4,337.8ZM45.3,55.2a5.47,5.47,0,0,0-5.46,5.46V332.09a5.47,5.47,0,0,0,5.46,5.46H238.4a5.47,5.47,0,0,0,5.46-5.46V60.66a5.47,5.47,0,0,0-5.46-5.46Z" style="fill:#ebebeb"></path><path d="M454.7,337.8H261.6a5.71,5.71,0,0,1-5.71-5.71V60.66A5.71,5.71,0,0,1,261.6,55H454.7a5.71,5.71,0,0,1,5.71,5.71V332.09A5.71,5.71,0,0,1,454.7,337.8ZM261.6,55.2a5.47,5.47,0,0,0-5.46,5.46V332.09a5.47,5.47,0,0,0,5.46,5.46H454.7a5.47,5.47,0,0,0,5.46-5.46V60.66a5.47,5.47,0,0,0-5.46-5.46Z" style="fill:#ebebeb"></path><rect y="382.4" width="500" height="0.25" style="fill:#ebebeb"></rect><path d="M98.88,382.65h0a.85.85,0,0,1-.77-.92l17-204.29h1.7v1.69h-.14L99.8,381.87A.86.86,0,0,1,98.88,382.65Z" style="fill:#e0e0e0"></path><path d="M174.65,382.65h0a.86.86,0,0,0,.78-.92L158.38,177.44h-1.7v1.69h.14l10.9,130.64H112.87L101.82,177.44h-1.69v1.69h.14l16.92,202.74a.85.85,0,0,0,.91.78h0a.86.86,0,0,0,.78-.92L113,311.47h54.85l5.88,70.4A.86.86,0,0,0,174.65,382.65Z" style="fill:#e0e0e0"></path><polygon points="178.57 282.79 97.56 282.79 87.34 160.24 168.35 160.24 178.57 282.79" style="fill:#ebebeb"></polygon><polygon points="174.89 279.4 165.23 163.63 91.02 163.63 100.68 279.4 174.89 279.4" style="fill:#fafafa"></polygon><path d="M179.16,285.48H98.09a2.69,2.69,0,0,1-2.68-2.69h0a2.69,2.69,0,0,1,2.68-2.69h81.07a2.69,2.69,0,0,1,2.68,2.69h0A2.69,2.69,0,0,1,179.16,285.48Z" style="fill:#e6e6e6"></path><path d="M339.14,353c-1.13-13.6-5.81-21.64-9.55-26a22.63,22.63,0,0,0-7.89-6.24l.36-.94c.16.06,15.86,6.42,18.08,33.09Z" style="fill:#e6e6e6"></path><path d="M342.89,350.34h-1c.52-44.48-30.22-57.74-30.53-57.87l.38-.93C312.06,291.67,343.41,305.19,342.89,350.34Z" style="fill:#e6e6e6"></path><path d="M345.82,350.33c-.07-16.8,3.93-28,11.9-33.19,10.14-6.64,23.21-1,23.34-.94l-.4.92c-.13-.06-12.72-5.48-22.39.86-7.67,5-11.52,15.91-11.45,32.35Z" style="fill:#e6e6e6"></path><path d="M344.35,357.73c-3-25.08-2.46-53.27-2.45-53.55l1,0c0,.28-.53,28.4,2.45,53.41Z" style="fill:#e6e6e6"></path><path d="M349.84,350.34l-1,0c.82-43.21,6.54-68,16.53-71.59,5.71-2.07,10.53,3.38,10.73,3.62l-.76.65c0-.05-4.57-5.17-9.64-3.33C359,282.09,350.87,296.32,349.84,350.34Z" style="fill:#e6e6e6"></path><path d="M383.38,313.55s12.89-20.88,22.57-1.88c7.85,15.42-5.1,28.41-5.1,28.41S345.34,331.5,359,312.19C367.47,300.3,383.38,313.55,383.38,313.55Z" style="fill:#f0f0f0"></path><path d="M385,315s16.73.42,16.6,1.7S387,315.93,388,318s14.59,6.05,14.42,7.78-12.52-4.78-12.21-3.18,7.81,10.24,7.61,12.15-6.79-9.44-8-8.52-3.32,9.74-3.79,7.54,2.17-11,.47-13.1-15.58,6.95-18,4.95S383.07,320.1,385,315Z" style="fill:#e0e0e0"></path><path d="M376.31,314.31s-13.58-2.27-14.65,1.29S364.26,315.87,376.31,314.31Z" style="fill:#e0e0e0"></path><path d="M304.59,290.52s-10.69-22.09-22.26-4.17c-9.38,14.53,2.17,28.78,2.17,28.78s56.09-2.87,44.44-23.48C321.77,279,304.59,290.52,304.59,290.52Z" style="fill:#f0f0f0"></path><path d="M302.84,291.75s-16.68-1.3-16.68,0,14.61.77,13.39,2.68-15.13,4.52-15.13,6.26,12.94-3.48,12.47-1.91-8.82,9.39-8.82,11.3,7.72-8.69,8.82-7.65,2.31,10,3,7.88-1-11.15.87-13.08,14.78,8.51,17.39,6.77S304.23,297.06,302.84,291.75Z" style="fill:#e0e0e0"></path><path d="M311.55,292s13.74-.87,14.43,2.78S323.37,294.78,311.55,292Z" style="fill:#e0e0e0"></path><path d="M373.43,278.65s6.41-13.26,13.35-2.51c5.63,8.72-1.3,17.27-1.3,17.27s-33.65-1.72-26.66-14.09C363.12,271.71,373.43,278.65,373.43,278.65Z" style="fill:#f0f0f0"></path><path d="M374.47,279.38s10-.77,10,0-8.76.46-8,1.61,9.08,2.71,9.08,3.76-7.77-2.09-7.48-1.15,5.29,5.63,5.29,6.78-4.64-5.21-5.29-4.59-1.39,6-1.81,4.73.63-6.69-.52-7.85-8.87,5.1-10.43,4.06S373.65,282.57,374.47,279.38Z" style="fill:#e0e0e0"></path><path d="M369.25,279.53s-8.24-.52-8.66,1.67S362.16,281.2,369.25,279.53Z" style="fill:#e0e0e0"></path><path d="M354.89,335.2s4.14-8.55,8.62-1.61c3.63,5.62-.84,11.14-.84,11.14s-21.71-1.11-17.2-9.09C348.24,330.73,354.89,335.2,354.89,335.2Z" style="fill:#f0f0f0"></path><path d="M355.57,335.68s6.46-.5,6.46,0-5.66.29-5.19,1,5.86,1.75,5.86,2.42-5-1.35-4.83-.74,3.42,3.63,3.42,4.37-3-3.36-3.42-3-.89,3.88-1.16,3.05.4-4.31-.34-5.06-5.72,3.29-6.73,2.62S355,337.73,355.57,335.68Z" style="fill:#e0e0e0"></path><path d="M352.2,335.77s-5.32-.33-5.59,1.08S347.62,336.85,352.2,335.77Z" style="fill:#e0e0e0"></path><path d="M317.9,321.89s-12.64-7.54-12.53,5.25c.09,10.38,10.58,13.71,10.58,13.71s27.16-19.93,14.53-26.42C322.71,310.44,317.9,321.89,317.9,321.89Z" style="fill:#f0f0f0"></path><path d="M317.43,323.08s-8.79,4.86-8.36,5.5,7.57-4.43,7.59-3.07-6.09,7.26-5.52,8.13,5.35-6,5.62-5.07-1.32,7.61-.69,8.57,1-6.9,1.9-6.74,4.46,4.27,4.1,3-4.19-5.24-3.87-6.84,10.21-.61,10.94-2.34S319.88,325.29,317.43,323.08Z" style="fill:#e0e0e0"></path><path d="M321.88,320.34s6.6-5,8.15-3.36S328.72,317.84,321.88,320.34Z" style="fill:#e0e0e0"></path><path d="M347.87,296.65s11.54-6.89,11.44,4.79c-.08,9.47-9.65,12.51-9.65,12.51s-24.8-18.18-13.27-24.11C343.49,286.2,347.87,296.65,347.87,296.65Z" style="fill:#f0f0f0"></path><path d="M348.3,297.74s8,4.43,7.63,5-6.91-4-6.93-2.8,5.56,6.62,5,7.42-4.88-5.49-5.13-4.63,1.21,6.95.63,7.82-.92-6.3-1.73-6.15-4.08,3.89-3.75,2.7,3.83-4.79,3.54-6.25-9.32-.55-10-2.13S346.07,299.76,348.3,297.74Z" style="fill:#e0e0e0"></path><path d="M344.24,295.23s-6-4.53-7.44-3.07S338,293,344.24,295.23Z" style="fill:#e0e0e0"></path><polygon points="318.07 348.5 326.7 382.52 364.8 382.52 373.42 348.5 318.07 348.5" style="fill:#e6e6e6"></polygon></g><g id="freepik--Shadow--inject-42"><ellipse id="freepik--path--inject-42" cx="250" cy="415.69" rx="193.89" ry="11.32" style="fill:#f5f5f5"></ellipse></g><g id="freepik--Document--inject-42"><path d="M363.4,265.52v-1a43.39,43.39,0,0,0,5.89-.4l.13,1A45.22,45.22,0,0,1,363.4,265.52Zm-4-.19a39.86,39.86,0,0,1-6-1l.25-1a39.24,39.24,0,0,0,5.8,1Zm14-.92-.22-1a48.51,48.51,0,0,0,5.68-1.64l.33.94A47.18,47.18,0,0,1,373.38,264.41Zm-23.81-1.3a32.64,32.64,0,0,1-5.45-2.63l.52-.85a32.58,32.58,0,0,0,5.28,2.55Zm33.33-1.87-.41-.91a48,48,0,0,0,5.21-2.78l.52.85A47.42,47.42,0,0,1,382.9,261.24Zm-42.1-3.06a29.55,29.55,0,0,1-2.45-2.16c-.66-.65-1.31-1.33-1.93-2l.74-.68c.61.67,1.24,1.33,1.89,2a29.4,29.4,0,0,0,2.37,2.1Zm50.74-2.06-.6-.8a39.43,39.43,0,0,0,4.43-3.88l.08-.08.71.71-.08.07A40.53,40.53,0,0,1,391.54,256.12Zm-57.69-5.19a45.23,45.23,0,0,1-3.33-5l.87-.49a44,44,0,0,0,3.25,4.92Zm65-1.89-.79-.62a32.06,32.06,0,0,0,3.2-4.92l.89.46A33.64,33.64,0,0,1,398.82,249Zm-70.11-6.74a38.35,38.35,0,0,1-2-5.7l1-.26a38.61,38.61,0,0,0,2,5.55Zm75.05-2-.94-.35a28.46,28.46,0,0,0,1.46-5.67l1,.15A29.78,29.78,0,0,1,403.76,240.27Zm-77.89-7.62a34.44,34.44,0,0,1-.38-5.05c0-.33,0-.66,0-1l1,0c0,.32,0,.64,0,1a33.78,33.78,0,0,0,.37,4.9Zm79.74-2.28-1,0v-.53a31.09,31.09,0,0,0-.46-5.32l1-.17a33.09,33.09,0,0,1,.47,5.49Zm-78.74-7.63-1-.15a32,32,0,0,1,1.49-5.87l.94.34A30.91,30.91,0,0,0,326.87,222.74Zm76.4-2.06a38.46,38.46,0,0,0-2.09-5.5l.9-.42a37.7,37.7,0,0,1,2.15,5.64Zm-73.41-7.22L329,213a34.55,34.55,0,0,1,3.21-5.13l.79.6A33.83,33.83,0,0,0,329.86,213.46Zm69.48-1.75a46.65,46.65,0,0,0-3.33-4.87l.78-.62a47.27,47.27,0,0,1,3.41,5Zm-63.83-6.23-.73-.68c.19-.21.39-.41.59-.62a41.21,41.21,0,0,1,3.87-3.45l.61.78a41.91,41.91,0,0,0-3.77,3.37Zm57.95-1.65c-.61-.66-1.24-1.32-1.89-2a31.59,31.59,0,0,0-2.37-2.11l.62-.78a31.64,31.64,0,0,1,2.45,2.17c.66.65,1.31,1.32,1.92,2Zm-50.4-4.59-.54-.84a44.36,44.36,0,0,1,5.29-2.9l.42.91A43.74,43.74,0,0,0,343.06,199.24ZM386,197.51a34.32,34.32,0,0,0-5.25-2.63l.36-.93a33.75,33.75,0,0,1,5.41,2.71Zm-34.13-2.6-.33-.94a48,48,0,0,1,5.8-1.66l.21,1A46.56,46.56,0,0,0,351.87,194.91ZM377,193.65a37.83,37.83,0,0,0-5.78-1.1l.11-1a38.35,38.35,0,0,1,5.93,1.12Zm-15.59-1-.13-1a45.07,45.07,0,0,1,5.42-.34h.61l0,1h-.59A42.81,42.81,0,0,0,361.43,192.63Z" style="fill:#FF5900"></path><path d="M330.57,211.21a51.45,51.45,0,0,1-5.07-3.33l.59-.81a49,49,0,0,0,5,3.26Zm-8.25-5.81c-1.55-1.28-3.06-2.64-4.49-4.05l.7-.71c1.41,1.38,2.9,2.73,4.42,4Zm-7.29-7c-1.28-1.41-2.5-2.88-3.63-4.36l.79-.61c1.12,1.46,2.32,2.91,3.58,4.3Z" style="fill:#FF5900"></path><g style="opacity:0.30000000000000004"><path d="M363.4,265.52v-1a43.39,43.39,0,0,0,5.89-.4l.13,1A45.22,45.22,0,0,1,363.4,265.52Zm-4-.19a39.86,39.86,0,0,1-6-1l.25-1a39.24,39.24,0,0,0,5.8,1Zm14-.92-.22-1a48.51,48.51,0,0,0,5.68-1.64l.33.94A47.18,47.18,0,0,1,373.38,264.41Zm-23.81-1.3a32.64,32.64,0,0,1-5.45-2.63l.52-.85a32.58,32.58,0,0,0,5.28,2.55Zm33.33-1.87-.41-.91a48,48,0,0,0,5.21-2.78l.52.85A47.42,47.42,0,0,1,382.9,261.24Zm-42.1-3.06a29.55,29.55,0,0,1-2.45-2.16c-.66-.65-1.31-1.33-1.93-2l.74-.68c.61.67,1.24,1.33,1.89,2a29.4,29.4,0,0,0,2.37,2.1Zm50.74-2.06-.6-.8a39.43,39.43,0,0,0,4.43-3.88l.08-.08.71.71-.08.07A40.53,40.53,0,0,1,391.54,256.12Zm-57.69-5.19a45.23,45.23,0,0,1-3.33-5l.87-.49a44,44,0,0,0,3.25,4.92Zm65-1.89-.79-.62a32.06,32.06,0,0,0,3.2-4.92l.89.46A33.64,33.64,0,0,1,398.82,249Zm-70.11-6.74a38.35,38.35,0,0,1-2-5.7l1-.26a38.61,38.61,0,0,0,2,5.55Zm75.05-2-.94-.35a28.46,28.46,0,0,0,1.46-5.67l1,.15A29.78,29.78,0,0,1,403.76,240.27Zm-77.89-7.62a34.44,34.44,0,0,1-.38-5.05c0-.33,0-.66,0-1l1,0c0,.32,0,.64,0,1a33.78,33.78,0,0,0,.37,4.9Zm79.74-2.28-1,0v-.53a31.09,31.09,0,0,0-.46-5.32l1-.17a33.09,33.09,0,0,1,.47,5.49Zm-78.74-7.63-1-.15a32,32,0,0,1,1.49-5.87l.94.34A30.91,30.91,0,0,0,326.87,222.74Zm76.4-2.06a38.46,38.46,0,0,0-2.09-5.5l.9-.42a37.7,37.7,0,0,1,2.15,5.64Zm-73.41-7.22L329,213a34.55,34.55,0,0,1,3.21-5.13l.79.6A33.83,33.83,0,0,0,329.86,213.46Zm69.48-1.75a46.65,46.65,0,0,0-3.33-4.87l.78-.62a47.27,47.27,0,0,1,3.41,5Zm-63.83-6.23-.73-.68c.19-.21.39-.41.59-.62a41.21,41.21,0,0,1,3.87-3.45l.61.78a41.91,41.91,0,0,0-3.77,3.37Zm57.95-1.65c-.61-.66-1.24-1.32-1.89-2a31.59,31.59,0,0,0-2.37-2.11l.62-.78a31.64,31.64,0,0,1,2.45,2.17c.66.65,1.31,1.32,1.92,2Zm-50.4-4.59-.54-.84a44.36,44.36,0,0,1,5.29-2.9l.42.91A43.74,43.74,0,0,0,343.06,199.24ZM386,197.51a34.32,34.32,0,0,0-5.25-2.63l.36-.93a33.75,33.75,0,0,1,5.41,2.71Zm-34.13-2.6-.33-.94a48,48,0,0,1,5.8-1.66l.21,1A46.56,46.56,0,0,0,351.87,194.91ZM377,193.65a37.83,37.83,0,0,0-5.78-1.1l.11-1a38.35,38.35,0,0,1,5.93,1.12Zm-15.59-1-.13-1a45.07,45.07,0,0,1,5.42-.34h.61l0,1h-.59A42.81,42.81,0,0,0,361.43,192.63Z"></path><path d="M330.57,211.21a51.45,51.45,0,0,1-5.07-3.33l.59-.81a49,49,0,0,0,5,3.26Zm-8.25-5.81c-1.55-1.28-3.06-2.64-4.49-4.05l.7-.71c1.41,1.38,2.9,2.73,4.42,4Zm-7.29-7c-1.28-1.41-2.5-2.88-3.63-4.36l.79-.61c1.12,1.46,2.32,2.91,3.58,4.3Z"></path></g><rect x="344.01" y="196.49" width="43.61" height="55.89" transform="translate(50.82 -67.06) rotate(11.25)" style="fill:#FF5900"></rect><rect x="344.01" y="196.49" width="43.61" height="55.89" transform="translate(50.82 -67.06) rotate(11.25)" style="fill:#fff;opacity:0.7000000000000001"></rect><rect x="351.77" y="201.53" width="33.54" height="18.49" transform="matrix(0.98, 0.2, -0.2, 0.98, 48.2, -67.85)" style="fill:#FF5900"></rect><path d="M381.53,226.61l-27.09-5.39a.94.94,0,0,0-1.1.73h0a.94.94,0,0,0,.74,1.11l27.09,5.39a.93.93,0,0,0,1.1-.74h0A.93.93,0,0,0,381.53,226.61Z" style="fill:#263238"></path><path d="M349.19,226.87l27.38,5.45a.94.94,0,0,0,1.11-.74h0a.93.93,0,0,0-.74-1.1L349.56,225a.93.93,0,0,0-1.1.74h0A.94.94,0,0,0,349.19,226.87Z" style="fill:#263238"></path><path d="M377.25,235.32l-28.61-5.69a.94.94,0,0,0-1.1.74h0a.93.93,0,0,0,.74,1.1l28.6,5.69a1,1,0,0,0,1.11-.73h0A.94.94,0,0,0,377.25,235.32Z" style="fill:#263238"></path><path d="M377.56,240.17,351.69,235a.94.94,0,0,0-1.1.74h0a.93.93,0,0,0,.74,1.1L377.2,242a.94.94,0,0,0,1.1-.74h0A.93.93,0,0,0,377.56,240.17Z" style="fill:#263238"></path><path d="M346.45,240.68l28.6,5.69a.94.94,0,0,0,1.11-.74h0a.93.93,0,0,0-.74-1.1l-28.61-5.69a.94.94,0,0,0-1.1.73h0A.94.94,0,0,0,346.45,240.68Z" style="fill:#263238"></path><path d="M376.47,250.48a1,1,0,0,0-.74-1.11l-29.83-5.93a.94.94,0,0,0-.37,1.84l29.83,5.93A1,1,0,0,0,376.47,250.48Z" style="fill:#263238"></path><g style="opacity:0.5"><path d="M381.53,226.61l-27.09-5.39a.94.94,0,0,0-1.1.73h0a.94.94,0,0,0,.74,1.11l27.09,5.39a.93.93,0,0,0,1.1-.74h0A.93.93,0,0,0,381.53,226.61Z" style="fill:#fff"></path><path d="M349.19,226.87l27.38,5.45a.94.94,0,0,0,1.11-.74h0a.93.93,0,0,0-.74-1.1L349.56,225a.93.93,0,0,0-1.1.74h0A.94.94,0,0,0,349.19,226.87Z" style="fill:#fff"></path><path d="M377.25,235.32l-28.61-5.69a.94.94,0,0,0-1.1.74h0a.93.93,0,0,0,.74,1.1l28.6,5.69a1,1,0,0,0,1.11-.73h0A.94.94,0,0,0,377.25,235.32Z" style="fill:#fff"></path><path d="M377.56,240.17,351.69,235a.94.94,0,0,0-1.1.74h0a.93.93,0,0,0,.74,1.1L377.2,242a.94.94,0,0,0,1.1-.74h0A.93.93,0,0,0,377.56,240.17Z" style="fill:#fff"></path><path d="M346.45,240.68l28.6,5.69a.94.94,0,0,0,1.11-.74h0a.93.93,0,0,0-.74-1.1l-28.61-5.69a.94.94,0,0,0-1.1.73h0A.94.94,0,0,0,346.45,240.68Z" style="fill:#fff"></path><path d="M376.47,250.48a1,1,0,0,0-.74-1.11l-29.83-5.93a.94.94,0,0,0-.37,1.84l29.83,5.93A1,1,0,0,0,376.47,250.48Z" style="fill:#fff"></path></g><path d="M389.13,214.14a10.09,10.09,0,1,0-.57,14.78,2.28,2.28,0,0,0,.44,2.61l6.64,6.64a2.3,2.3,0,0,0,3.25-3.25l-6.64-6.64a2.3,2.3,0,0,0-2.61-.43A10.11,10.11,0,0,0,389.13,214.14ZM387.71,227a8.09,8.09,0,1,1,0-11.44A8.09,8.09,0,0,1,387.71,227Z" style="fill:#263238"></path></g><g id="freepik--Pictures--inject-42"><path d="M387.36,156.55c-.91,0-1.84,0-2.76-.08l.06-1a43.3,43.3,0,0,0,6-.05l.08,1C389.65,156.51,388.5,156.55,387.36,156.55ZM380.5,156a43.4,43.4,0,0,1-6-1.36l.29-1a41.1,41.1,0,0,0,5.88,1.33Zm14.36-.12-.18-1a39.35,39.35,0,0,0,5.84-1.51l.42.91-.1,0A38.82,38.82,0,0,1,394.86,155.9Zm-24.27-2.62a38.52,38.52,0,0,1-5.51-2.81l.52-.85a38.09,38.09,0,0,0,5.37,2.73Zm34.16-.54-.44-.89a30.13,30.13,0,0,0,5.11-3.14l.61.79A31.22,31.22,0,0,1,404.75,152.74Zm-43.06-4.64a30.83,30.83,0,0,1-4.44-4.32l.76-.64a30,30,0,0,0,4.31,4.18Zm51.44-1.34-.72-.7a27,27,0,0,0,3.67-4.72l.85.52A28.19,28.19,0,0,1,413.13,146.76Zm-58.3-6.34a26.28,26.28,0,0,1-2.4-5.09l-.18-.55.94-.32.19.55a25.33,25.33,0,0,0,2.3,4.89Zm64-2.25-.92-.39a28.84,28.84,0,0,0,1.75-5.73l1,.19A29.33,29.33,0,0,1,418.82,138.17Zm-67.67-7.37a38.1,38.1,0,0,1-.84-6.13l1,0a37.39,37.39,0,0,0,.82,6Zm70-2.66-1-.07c.05-.79.08-1.59.08-2.39,0-1.19-.06-2.41-.18-3.62l1-.1a35.79,35.79,0,0,1,.19,3.72C421.26,126.5,421.23,127.33,421.18,128.14Zm-69.85-7.53-1-.07a33.64,33.64,0,0,1,1-6.12l1,.25A32.4,32.4,0,0,0,351.33,120.61Zm68.14-2.53a41.72,41.72,0,0,0-1.48-5.4l-.15-.4.94-.35.15.42a44.24,44.24,0,0,1,1.52,5.53Zm-66-7.21-.93-.38a30.42,30.42,0,0,1,2.9-5.47l.83.55A29.13,29.13,0,0,0,353.51,110.87Zm62.69-2.23a28.09,28.09,0,0,0-3.42-4.91l.75-.66a28.72,28.72,0,0,1,3.55,5.09Zm-57.43-6.22-.74-.67a30.33,30.33,0,0,1,4.6-4.15l.59.8A29.39,29.39,0,0,0,358.77,102.42ZM410,100.89a32.91,32.91,0,0,0-4.86-3.54l.52-.86a34.87,34.87,0,0,1,5,3.65ZM366.6,96.25l-.48-.87a34.11,34.11,0,0,1,5.43-2.4l.23-.08.32.94-.22.08A34.47,34.47,0,0,0,366.6,96.25Zm34.94-.77a39.81,39.81,0,0,0-5.66-2.09l.28-1a40.55,40.55,0,0,1,5.8,2.14ZM376,92.77l-.21-1a39.74,39.74,0,0,1,6.12-.87l.06,1A38.15,38.15,0,0,0,376,92.77Zm16-.28a41.53,41.53,0,0,0-6-.64l0-1a43.64,43.64,0,0,1,6.14.65Z" style="fill:#FF5900"></path><path d="M337.67,151.71l-2,0,0-1c2.1,0,4.06,0,6-.07l0,1C340.41,151.67,339.05,151.71,337.67,151.71Zm8.06-.41-.11-1a55.49,55.49,0,0,0,5.87-.93l.21,1A57.38,57.38,0,0,1,345.73,151.3Zm9.88-2-.3-.95a21.53,21.53,0,0,0,5.34-2.34l.58.81A21.41,21.41,0,0,1,355.61,149.32Z" style="fill:#FF5900"></path><g style="opacity:0.30000000000000004"><path d="M387.36,156.55c-.91,0-1.84,0-2.76-.08l.06-1a43.3,43.3,0,0,0,6-.05l.08,1C389.65,156.51,388.5,156.55,387.36,156.55ZM380.5,156a43.4,43.4,0,0,1-6-1.36l.29-1a41.1,41.1,0,0,0,5.88,1.33Zm14.36-.12-.18-1a39.35,39.35,0,0,0,5.84-1.51l.42.91-.1,0A38.82,38.82,0,0,1,394.86,155.9Zm-24.27-2.62a38.52,38.52,0,0,1-5.51-2.81l.52-.85a38.09,38.09,0,0,0,5.37,2.73Zm34.16-.54-.44-.89a30.13,30.13,0,0,0,5.11-3.14l.61.79A31.22,31.22,0,0,1,404.75,152.74Zm-43.06-4.64a30.83,30.83,0,0,1-4.44-4.32l.76-.64a30,30,0,0,0,4.31,4.18Zm51.44-1.34-.72-.7a27,27,0,0,0,3.67-4.72l.85.52A28.19,28.19,0,0,1,413.13,146.76Zm-58.3-6.34a26.28,26.28,0,0,1-2.4-5.09l-.18-.55.94-.32.19.55a25.33,25.33,0,0,0,2.3,4.89Zm64-2.25-.92-.39a28.84,28.84,0,0,0,1.75-5.73l1,.19A29.33,29.33,0,0,1,418.82,138.17Zm-67.67-7.37a38.1,38.1,0,0,1-.84-6.13l1,0a37.39,37.39,0,0,0,.82,6Zm70-2.66-1-.07c.05-.79.08-1.59.08-2.39,0-1.19-.06-2.41-.18-3.62l1-.1a35.79,35.79,0,0,1,.19,3.72C421.26,126.5,421.23,127.33,421.18,128.14Zm-69.85-7.53-1-.07a33.64,33.64,0,0,1,1-6.12l1,.25A32.4,32.4,0,0,0,351.33,120.61Zm68.14-2.53a41.72,41.72,0,0,0-1.48-5.4l-.15-.4.94-.35.15.42a44.24,44.24,0,0,1,1.52,5.53Zm-66-7.21-.93-.38a30.42,30.42,0,0,1,2.9-5.47l.83.55A29.13,29.13,0,0,0,353.51,110.87Zm62.69-2.23a28.09,28.09,0,0,0-3.42-4.91l.75-.66a28.72,28.72,0,0,1,3.55,5.09Zm-57.43-6.22-.74-.67a30.33,30.33,0,0,1,4.6-4.15l.59.8A29.39,29.39,0,0,0,358.77,102.42ZM410,100.89a32.91,32.91,0,0,0-4.86-3.54l.52-.86a34.87,34.87,0,0,1,5,3.65ZM366.6,96.25l-.48-.87a34.11,34.11,0,0,1,5.43-2.4l.23-.08.32.94-.22.08A34.47,34.47,0,0,0,366.6,96.25Zm34.94-.77a39.81,39.81,0,0,0-5.66-2.09l.28-1a40.55,40.55,0,0,1,5.8,2.14ZM376,92.77l-.21-1a39.74,39.74,0,0,1,6.12-.87l.06,1A38.15,38.15,0,0,0,376,92.77Zm16-.28a41.53,41.53,0,0,0-6-.64l0-1a43.64,43.64,0,0,1,6.14.65Z"></path><path d="M337.67,151.71l-2,0,0-1c2.1,0,4.06,0,6-.07l0,1C340.41,151.67,339.05,151.71,337.67,151.71Zm8.06-.41-.11-1a55.49,55.49,0,0,0,5.87-.93l.21,1A57.38,57.38,0,0,1,345.73,151.3Zm9.88-2-.3-.95a21.53,21.53,0,0,0,5.34-2.34l.58.81A21.41,21.41,0,0,1,355.61,149.32Z"></path></g><rect x="354.89" y="103.34" width="33.99" height="23.45" transform="translate(-15.73 151.07) rotate(-22.5)" style="fill:#FF5900"></rect><rect x="354.89" y="103.34" width="33.99" height="23.45" transform="translate(-15.73 151.07) rotate(-22.5)" style="fill:#fff;opacity:0.6000000000000001"></rect><polygon points="361.96 131.74 365.78 118.02 378.18 125.02 361.96 131.74" style="fill:#FF5900"></polygon><polygon points="361.96 131.74 365.78 118.02 378.18 125.02 361.96 131.74" style="fill:#fff;opacity:0.30000000000000004"></polygon><polygon points="368.81 128.9 374.06 110.06 391.09 119.67 368.81 128.9" style="fill:#FF5900"></polygon><path d="M365,112.16a2.91,2.91,0,1,1-3.8-1.58A2.9,2.9,0,0,1,365,112.16Z" style="fill:#fff;opacity:0.6000000000000001"></path><rect x="381" y="129.77" width="27.49" height="18.97" transform="translate(34.75 -74.34) rotate(11.25)" style="fill:#FF5900"></rect><rect x="381" y="129.77" width="27.49" height="18.97" transform="translate(34.75 -74.34) rotate(11.25)" style="fill:#fff;opacity:0.6000000000000001"></rect><polygon points="380.58 146.01 389.32 138.5 394.51 148.78 380.58 146.01" style="fill:#FF5900"></polygon><polygon points="380.58 146.01 389.32 138.5 394.51 148.78 380.58 146.01" style="fill:#fff;opacity:0.30000000000000004"></polygon><polygon points="386.47 147.18 398.46 136.86 405.59 150.98 386.47 147.18" style="fill:#FF5900"></polygon><path d="M391.45,134.22a2.36,2.36,0,1,1-4.62-.92,2.36,2.36,0,1,1,4.62.92Z" style="fill:#fff;opacity:0.6000000000000001"></path></g><g id="freepik--Chart--inject-42"><path d="M147,257.46c-1,0-1.94,0-2.92-.09l.07-1a44,44,0,0,0,6,0l.08,1C149.11,257.42,148,257.46,147,257.46Zm-7-.55a44.38,44.38,0,0,1-6-1.36l.29-1a44.38,44.38,0,0,0,5.83,1.34Zm14.21-.07-.17-1a38.84,38.84,0,0,0,5.78-1.48l.09,0,.32.95-.08,0A38.28,38.28,0,0,1,154.21,256.84Zm-24-2.65a40.51,40.51,0,0,1-5.48-2.72l.51-.86a41,41,0,0,0,5.35,2.66Zm33.81-.47-.44-.9a28.84,28.84,0,0,0,5.05-3.11l.61.79A30.84,30.84,0,0,1,164,253.72Zm-42.68-4.53a34.46,34.46,0,0,1-4.55-4.11l.74-.68a33.09,33.09,0,0,0,4.41,4Zm51-1.42-.72-.69a27,27,0,0,0,3.63-4.68l.86.52A28.26,28.26,0,0,1,172.3,247.77Zm-58.09-5.87a28.81,28.81,0,0,1-3-5.36l.92-.39a28.23,28.23,0,0,0,2.88,5.17ZM178,239.29l-.92-.4a30.9,30.9,0,0,0,1.81-5.66l1,.21A31.94,31.94,0,0,1,178,239.29Zm-68.1-6.6a42.59,42.59,0,0,1-1.32-6l1-.15a41.71,41.71,0,0,0,1.29,5.83Zm70.59-3.29-1-.09c.11-1.13.16-2.29.16-3.45,0-.84,0-1.68-.08-2.51l1-.07c.05.86.08,1.72.08,2.58C180.61,227.05,180.56,228.24,180.45,229.4Zm-72.3-6.75c0-.58,0-1.16,0-1.74a37.16,37.16,0,0,1,.26-4.37l1,.11a35.43,35.43,0,0,0-.25,4.26c0,.56,0,1.13,0,1.7Zm70.93-3.26a45.23,45.23,0,0,0-1.34-5.82l1-.29a47.68,47.68,0,0,1,1.37,5.95Zm-69-6.65-1-.23a32.25,32.25,0,0,1,2-5.8l.91.41A30.52,30.52,0,0,0,110.06,212.74Zm66.36-2.92a30,30,0,0,0-2.85-5.21l.82-.57a30.06,30.06,0,0,1,3,5.39Zm-62.57-6.19-.85-.53a30.07,30.07,0,0,1,3.77-4.84l.72.69A28.62,28.62,0,0,0,113.85,203.63Zm57.28-2.14a33,33,0,0,0-4.35-4.07l.62-.78a34.17,34.17,0,0,1,4.47,4.18Zm-50.71-5.2-.62-.79a31.33,31.33,0,0,1,5.17-3.3l.45.89A30.82,30.82,0,0,0,120.42,196.29Zm43.1-1.14a38.37,38.37,0,0,0-5.3-2.73l.39-.92a39.28,39.28,0,0,1,5.44,2.8Zm-34.46-3.66-.35-.94.75-.26a36.82,36.82,0,0,1,5.15-1.38l.19,1a36.71,36.71,0,0,0-5,1.34Zm25.42-.44a41,41,0,0,0-5.82-1.35l.16-1a41.91,41.91,0,0,1,6,1.39Zm-15.74-1.71-.09-1c1.18-.1,2.38-.15,3.57-.15.88,0,1.7,0,2.55.08l-.07,1c-.82,0-1.65-.08-2.48-.07C141.06,189.19,139.89,189.24,138.74,189.34Z" style="fill:#FF5900"></path><path d="M166.18,194.84l-.45-.89s2-1,5.13-3l.54.84C168.21,193.81,166.26,194.8,166.18,194.84Zm8.56-5.31-.57-.82c1.6-1.12,3.22-2.32,4.8-3.56l.61.79C178,187.19,176.36,188.4,174.74,189.53Zm8-6.12-.64-.77c1.52-1.27,3-2.61,4.47-4l.68.73C185.75,180.77,184.23,182.12,182.7,183.41Zm7.4-6.8-.71-.7c1.41-1.42,2.79-2.88,4.11-4.35l.74.67C192.92,173.71,191.52,175.19,190.1,176.61Z" style="fill:#FF5900"></path><g style="opacity:0.30000000000000004"><path d="M147,257.46c-1,0-1.94,0-2.92-.09l.07-1a44,44,0,0,0,6,0l.08,1C149.11,257.42,148,257.46,147,257.46Zm-7-.55a44.38,44.38,0,0,1-6-1.36l.29-1a44.38,44.38,0,0,0,5.83,1.34Zm14.21-.07-.17-1a38.84,38.84,0,0,0,5.78-1.48l.09,0,.32.95-.08,0A38.28,38.28,0,0,1,154.21,256.84Zm-24-2.65a40.51,40.51,0,0,1-5.48-2.72l.51-.86a41,41,0,0,0,5.35,2.66Zm33.81-.47-.44-.9a28.84,28.84,0,0,0,5.05-3.11l.61.79A30.84,30.84,0,0,1,164,253.72Zm-42.68-4.53a34.46,34.46,0,0,1-4.55-4.11l.74-.68a33.09,33.09,0,0,0,4.41,4Zm51-1.42-.72-.69a27,27,0,0,0,3.63-4.68l.86.52A28.26,28.26,0,0,1,172.3,247.77Zm-58.09-5.87a28.81,28.81,0,0,1-3-5.36l.92-.39a28.23,28.23,0,0,0,2.88,5.17ZM178,239.29l-.92-.4a30.9,30.9,0,0,0,1.81-5.66l1,.21A31.94,31.94,0,0,1,178,239.29Zm-68.1-6.6a42.59,42.59,0,0,1-1.32-6l1-.15a41.71,41.71,0,0,0,1.29,5.83Zm70.59-3.29-1-.09c.11-1.13.16-2.29.16-3.45,0-.84,0-1.68-.08-2.51l1-.07c.05.86.08,1.72.08,2.58C180.61,227.05,180.56,228.24,180.45,229.4Zm-72.3-6.75c0-.58,0-1.16,0-1.74a37.16,37.16,0,0,1,.26-4.37l1,.11a35.43,35.43,0,0,0-.25,4.26c0,.56,0,1.13,0,1.7Zm70.93-3.26a45.23,45.23,0,0,0-1.34-5.82l1-.29a47.68,47.68,0,0,1,1.37,5.95Zm-69-6.65-1-.23a32.25,32.25,0,0,1,2-5.8l.91.41A30.52,30.52,0,0,0,110.06,212.74Zm66.36-2.92a30,30,0,0,0-2.85-5.21l.82-.57a30.06,30.06,0,0,1,3,5.39Zm-62.57-6.19-.85-.53a30.07,30.07,0,0,1,3.77-4.84l.72.69A28.62,28.62,0,0,0,113.85,203.63Zm57.28-2.14a33,33,0,0,0-4.35-4.07l.62-.78a34.17,34.17,0,0,1,4.47,4.18Zm-50.71-5.2-.62-.79a31.33,31.33,0,0,1,5.17-3.3l.45.89A30.82,30.82,0,0,0,120.42,196.29Zm43.1-1.14a38.37,38.37,0,0,0-5.3-2.73l.39-.92a39.28,39.28,0,0,1,5.44,2.8Zm-34.46-3.66-.35-.94.75-.26a36.82,36.82,0,0,1,5.15-1.38l.19,1a36.71,36.71,0,0,0-5,1.34Zm25.42-.44a41,41,0,0,0-5.82-1.35l.16-1a41.91,41.91,0,0,1,6,1.39Zm-15.74-1.71-.09-1c1.18-.1,2.38-.15,3.57-.15.88,0,1.7,0,2.55.08l-.07,1c-.82,0-1.65-.08-2.48-.07C141.06,189.19,139.89,189.24,138.74,189.34Z"></path><path d="M166.18,194.84l-.45-.89s2-1,5.13-3l.54.84C168.21,193.81,166.26,194.8,166.18,194.84Zm8.56-5.31-.57-.82c1.6-1.12,3.22-2.32,4.8-3.56l.61.79C178,187.19,176.36,188.4,174.74,189.53Zm8-6.12-.64-.77c1.52-1.27,3-2.61,4.47-4l.68.73C185.75,180.77,184.23,182.12,182.7,183.41Zm7.4-6.8-.71-.7c1.41-1.42,2.79-2.88,4.11-4.35l.74.67C192.92,173.71,191.52,175.19,190.1,176.61Z"></path></g><rect x="117.58" y="222.99" width="6.29" height="6.29" style="fill:#FF5900"></rect><rect x="130.16" y="216.7" width="6.29" height="12.58" style="fill:#FF5900"></rect><rect x="142.74" y="211.12" width="6.29" height="18.16" style="fill:#FF5900"></rect><rect x="155.32" y="205.4" width="6.29" height="23.88" style="fill:#FF5900"></rect><rect x="130.16" y="216.7" width="6.29" height="12.58" style="fill:#fff;opacity:0.5"></rect><rect x="155.32" y="205.4" width="6.29" height="23.88" style="fill:#fff;opacity:0.5"></rect><polygon points="166.12 233.65 117.58 233.65 117.58 232.4 164.86 232.4 164.86 205.4 166.12 205.4 166.12 233.65" style="fill:#FF5900"></polygon><g style="opacity:0.5"><polygon points="166.12 233.65 117.58 233.65 117.58 232.4 164.86 232.4 164.86 205.4 166.12 205.4 166.12 233.65" style="fill:#fff"></polygon></g></g><g id="freepik--speech-bubbles--inject-42"><path d="M120.5,163.69c-1.11,0-2.24-.05-3.34-.14l.08-1a31.43,31.43,0,0,0,5.9,0l.1,1A25,25,0,0,1,120.5,163.69Zm-7.35-.68a35.43,35.43,0,0,1-5.86-1.62l.35-.94a34.37,34.37,0,0,0,5.69,1.58Zm14.1-.21-.26-1a27.44,27.44,0,0,0,5.48-2.12l.46.89A28.47,28.47,0,0,1,127.25,162.8Zm-23.67-3.05a31.74,31.74,0,0,1-5.1-3.33l.63-.78a29.67,29.67,0,0,0,4.93,3.22Zm32.83-1.23-.57-.83a33.46,33.46,0,0,0,4.55-3.77l.7.72A35.55,35.55,0,0,1,136.41,158.52Zm-40.9-4.88a27,27,0,0,1-3.61-4.91l.87-.5A25.51,25.51,0,0,0,96.25,153Zm48.32-2-.78-.63a39.38,39.38,0,0,0,3.4-4.85l.86.51A40.54,40.54,0,0,1,143.83,151.64Zm-53.69-6.58a28.94,28.94,0,0,1-1.57-5.88l1-.16a27.47,27.47,0,0,0,1.52,5.68Zm59.05-2-.9-.42a40.27,40.27,0,0,0,2.08-5.54l1,.28A39.36,39.36,0,0,1,149.19,143.08Zm-61-8c0-.24,0-.48,0-.73a34.3,34.3,0,0,1,.43-5.33l1,.15a32.5,32.5,0,0,0-.42,5.18c0,.24,0,.47,0,.71Zm64-1.67-1-.18a33.74,33.74,0,0,0,.53-5.88v-.11h1v.11A34.82,34.82,0,0,1,152.25,133.46Zm-61.79-8.09-1-.27a38.62,38.62,0,0,1,2.09-5.7l.91.42A37.75,37.75,0,0,0,90.46,125.37Zm61.06-2a26.58,26.58,0,0,0-1.42-5.7l.93-.35a27.51,27.51,0,0,1,1.48,5.91Zm-57.18-7-.86-.51a37.89,37.89,0,0,1,3.51-5l.77.64A36.59,36.59,0,0,0,94.34,116.33Zm54.1-2.2a24.59,24.59,0,0,0-3.51-4.7l.73-.69a25.68,25.68,0,0,1,3.64,4.89Zm-48-5.51-.69-.72a34.11,34.11,0,0,1,4.75-3.8l.55.83A34,34,0,0,0,100.45,108.62ZM142,106.8a29.05,29.05,0,0,0-5-3.1l.45-.9a31,31,0,0,1,5.17,3.21ZM108.47,103l-.44-.9a30.21,30.21,0,0,1,5.71-2.11l.24,1A28.39,28.39,0,0,0,108.47,103Zm24.92-.78a36,36,0,0,0-5.72-1.47l.17-1a39.56,39.56,0,0,1,5.88,1.51Zm-15.55-1.94-.1-1a35.28,35.28,0,0,1,6.08,0l-.07,1A33.33,33.33,0,0,0,117.84,100.25Z" style="fill:#FF5900"></path><path d="M169.62,157c-2,0-4-.17-6-.4l.12-1a57.52,57.52,0,0,0,5.93.4Zm4-.07-.05-1a51,51,0,0,0,5.89-.67l.18,1A49,49,0,0,1,173.65,156.94ZM159.59,156c-2-.34-3.94-.78-5.9-1.3l.26-1c1.93.51,3.89.95,5.82,1.29Zm24-.65-.26-1c1.37-.37,2.72-.81,4-1.3l.36.93A42.86,42.86,0,0,1,183.61,155.37Zm-33.78-1.79a49.35,49.35,0,0,1-5.68-2.15l.42-.9a52.24,52.24,0,0,0,5.56,2.1Z" style="fill:#FF5900"></path><g style="opacity:0.30000000000000004"><path d="M120.5,163.69c-1.11,0-2.24-.05-3.34-.14l.08-1a31.43,31.43,0,0,0,5.9,0l.1,1A25,25,0,0,1,120.5,163.69Zm-7.35-.68a35.43,35.43,0,0,1-5.86-1.62l.35-.94a34.37,34.37,0,0,0,5.69,1.58Zm14.1-.21-.26-1a27.44,27.44,0,0,0,5.48-2.12l.46.89A28.47,28.47,0,0,1,127.25,162.8Zm-23.67-3.05a31.74,31.74,0,0,1-5.1-3.33l.63-.78a29.67,29.67,0,0,0,4.93,3.22Zm32.83-1.23-.57-.83a33.46,33.46,0,0,0,4.55-3.77l.7.72A35.55,35.55,0,0,1,136.41,158.52Zm-40.9-4.88a27,27,0,0,1-3.61-4.91l.87-.5A25.51,25.51,0,0,0,96.25,153Zm48.32-2-.78-.63a39.38,39.38,0,0,0,3.4-4.85l.86.51A40.54,40.54,0,0,1,143.83,151.64Zm-53.69-6.58a28.94,28.94,0,0,1-1.57-5.88l1-.16a27.47,27.47,0,0,0,1.52,5.68Zm59.05-2-.9-.42a40.27,40.27,0,0,0,2.08-5.54l1,.28A39.36,39.36,0,0,1,149.19,143.08Zm-61-8c0-.24,0-.48,0-.73a34.3,34.3,0,0,1,.43-5.33l1,.15a32.5,32.5,0,0,0-.42,5.18c0,.24,0,.47,0,.71Zm64-1.67-1-.18a33.74,33.74,0,0,0,.53-5.88v-.11h1v.11A34.82,34.82,0,0,1,152.25,133.46Zm-61.79-8.09-1-.27a38.62,38.62,0,0,1,2.09-5.7l.91.42A37.75,37.75,0,0,0,90.46,125.37Zm61.06-2a26.58,26.58,0,0,0-1.42-5.7l.93-.35a27.51,27.51,0,0,1,1.48,5.91Zm-57.18-7-.86-.51a37.89,37.89,0,0,1,3.51-5l.77.64A36.59,36.59,0,0,0,94.34,116.33Zm54.1-2.2a24.59,24.59,0,0,0-3.51-4.7l.73-.69a25.68,25.68,0,0,1,3.64,4.89Zm-48-5.51-.69-.72a34.11,34.11,0,0,1,4.75-3.8l.55.83A34,34,0,0,0,100.45,108.62ZM142,106.8a29.05,29.05,0,0,0-5-3.1l.45-.9a31,31,0,0,1,5.17,3.21ZM108.47,103l-.44-.9a30.21,30.21,0,0,1,5.71-2.11l.24,1A28.39,28.39,0,0,0,108.47,103Zm24.92-.78a36,36,0,0,0-5.72-1.47l.17-1a39.56,39.56,0,0,1,5.88,1.51Zm-15.55-1.94-.1-1a35.28,35.28,0,0,1,6.08,0l-.07,1A33.33,33.33,0,0,0,117.84,100.25Z"></path><path d="M169.62,157c-2,0-4-.17-6-.4l.12-1a57.52,57.52,0,0,0,5.93.4Zm4-.07-.05-1a51,51,0,0,0,5.89-.67l.18,1A49,49,0,0,1,173.65,156.94ZM159.59,156c-2-.34-3.94-.78-5.9-1.3l.26-1c1.93.51,3.89.95,5.82,1.29Zm24-.65-.26-1c1.37-.37,2.72-.81,4-1.3l.36.93A42.86,42.86,0,0,1,183.61,155.37Zm-33.78-1.79a49.35,49.35,0,0,1-5.68-2.15l.42-.9a52.24,52.24,0,0,0,5.56,2.1Z"></path></g><path d="M128.25,123.61c0-7.19-8.78-13-19.62-13S89,116.42,89,123.61s8.78,13,19.62,13a28.68,28.68,0,0,0,5.4-.51,11.76,11.76,0,0,0,8.75,3.89h0a1,1,0,0,0,.54-1.88,11.9,11.9,0,0,1-3.68-3.76C124.85,132,128.25,128.08,128.25,123.61Z" style="fill:#FF5900"></path><path d="M99.21,124.32a1.92,1.92,0,1,1-1.91-1.91A1.91,1.91,0,0,1,99.21,124.32Z" style="fill:#fff"></path><path d="M107,124.32a1.92,1.92,0,1,1-1.92-1.91A1.92,1.92,0,0,1,107,124.32Z" style="fill:#fff"></path><path d="M114.68,124.32a1.92,1.92,0,1,1-1.91-1.91A1.92,1.92,0,0,1,114.68,124.32Z" style="fill:#fff"></path><path d="M122.41,124.32a1.91,1.91,0,1,1-1.91-1.91A1.91,1.91,0,0,1,122.41,124.32Z" style="fill:#fff"></path><path d="M126.52,135.83c0-4.82,5.9-8.74,13.18-8.74s13.18,3.92,13.18,8.74-5.9,8.74-13.18,8.74a19.36,19.36,0,0,1-3.63-.34,7.9,7.9,0,0,1-5.87,2.61h0a.68.68,0,0,1-.35-1.26,7.93,7.93,0,0,0,2.46-2.53C128.81,141.48,126.52,138.83,126.52,135.83Z" style="fill:#FF5900"></path><path d="M126.52,135.83c0-4.82,5.9-8.74,13.18-8.74s13.18,3.92,13.18,8.74-5.9,8.74-13.18,8.74a19.36,19.36,0,0,1-3.63-.34,7.9,7.9,0,0,1-5.87,2.61h0a.68.68,0,0,1-.35-1.26,7.93,7.93,0,0,0,2.46-2.53C128.81,141.48,126.52,138.83,126.52,135.83Z" style="fill:#fff;opacity:0.6000000000000001"></path><path d="M132.26,135.58a1.41,1.41,0,1,1-1.4-1.41A1.4,1.4,0,0,1,132.26,135.58Z" style="fill:#FF5900"></path><path d="M138,135.58a1.41,1.41,0,1,1-1.41-1.41A1.41,1.41,0,0,1,138,135.58Z" style="fill:#FF5900"></path><path d="M143.63,135.58a1.41,1.41,0,1,1-1.41-1.41A1.41,1.41,0,0,1,143.63,135.58Z" style="fill:#FF5900"></path><path d="M149.31,135.58a1.41,1.41,0,1,1-1.4-1.41A1.4,1.4,0,0,1,149.31,135.58Z" style="fill:#FF5900"></path></g><g id="freepik--Shape--inject-42"><path d="M286.78,218.2,291.1,245l-19.91-6.4s-11.11-38.44-28.71-47.83c0,0-28.25.43-32.42-19.64,0,0-44,8.11-44-25.2s27.62-70.46,94-70.46c72.29,0,91.23,71.31,76.87,89.25,0,0,9.44,31.91-38.73,38.93C290.73,204.74,285.66,211.29,286.78,218.2Z" style="fill:#FF5900"></path><path d="M286.78,218.2,291.1,245l-19.91-6.4s-11.11-38.44-28.71-47.83c0,0-28.25.43-32.42-19.64,0,0-44,8.11-44-25.2s27.62-70.46,94-70.46c72.29,0,91.23,71.31,76.87,89.25,0,0,9.44,31.91-38.73,38.93C290.73,204.74,285.66,211.29,286.78,218.2Z" style="fill:#fff;opacity:0.4"></path></g><g id="freepik--Gears--inject-42"><path d="M316.92,121.09a22.48,22.48,0,0,0,.17-2.73,22.19,22.19,0,0,0-.17-2.72l-5.3-1.89a17.12,17.12,0,0,0-1.69-4.09l2.41-5.08a22.62,22.62,0,0,0-3.85-3.85l-5.08,2.41a17.29,17.29,0,0,0-4.09-1.69l-1.89-5.3a21.93,21.93,0,0,0-5.45,0l-1.88,5.3a17.19,17.19,0,0,0-4.1,1.69l-5.08-2.41a22.62,22.62,0,0,0-3.85,3.85l2.41,5.08a17.54,17.54,0,0,0-1.69,4.09l-5.3,1.89a22.19,22.19,0,0,0-.17,2.72,22.48,22.48,0,0,0,.17,2.73l5.3,1.88a17.79,17.79,0,0,0,1.69,4.1l-2.41,5.07a22.68,22.68,0,0,0,3.85,3.86l5.08-2.42a17.64,17.64,0,0,0,4.1,1.7l1.88,5.3a21.93,21.93,0,0,0,5.45,0l1.89-5.3a17.74,17.74,0,0,0,4.09-1.7l5.08,2.42a22.68,22.68,0,0,0,3.85-3.86l-2.41-5.07a17.36,17.36,0,0,0,1.69-4.1Zm-22.21,6.63a9.36,9.36,0,1,1,9.35-9.36A9.36,9.36,0,0,1,294.71,127.72Z" style="fill:#263238"></path><path d="M315.5,155.62a14.64,14.64,0,0,0,0-2.86l-4.81-1.17a9.73,9.73,0,0,0-.85-2.05l2.57-4.22a13.84,13.84,0,0,0-2-2l-4.22,2.58a9.12,9.12,0,0,0-2.06-.85L303,140.21a13.55,13.55,0,0,0-1.43-.08,13.41,13.41,0,0,0-1.43.08L298.92,145a9.23,9.23,0,0,0-2.05.85l-4.23-2.58a13.84,13.84,0,0,0-2,2l2.58,4.22a9.23,9.23,0,0,0-.85,2.05l-4.82,1.17c0,.47-.07,1-.07,1.43s0,1,.07,1.43l4.82,1.17a9.23,9.23,0,0,0,.85,2.05l-2.58,4.22a14.35,14.35,0,0,0,2,2l4.23-2.58a9.73,9.73,0,0,0,2.05.85l1.17,4.81a13.41,13.41,0,0,0,1.43.08,13.55,13.55,0,0,0,1.43-.08l1.16-4.81a9.6,9.6,0,0,0,2.06-.85l4.22,2.58a14.35,14.35,0,0,0,2-2l-2.57-4.22a9.73,9.73,0,0,0,.85-2.05Zm-14,2.49a3.92,3.92,0,1,1,3.92-3.92A3.92,3.92,0,0,1,301.52,158.11Z" style="fill:#263238"></path><path d="M277.31,101.17a11.44,11.44,0,0,0,0-2.34l-3.93-1a7.93,7.93,0,0,0-.69-1.67l2.1-3.45a11.7,11.7,0,0,0-1.65-1.65l-3.45,2.1a7.93,7.93,0,0,0-1.67-.69l-1-3.93a11.12,11.12,0,0,0-1.16-.06,11.46,11.46,0,0,0-1.17.06l-1,3.93a8.24,8.24,0,0,0-1.68.69l-3.44-2.1A11.7,11.7,0,0,0,257,92.76l2.1,3.45a7.93,7.93,0,0,0-.69,1.67l-3.93,1a11.44,11.44,0,0,0,0,2.34l3.93,1a7.93,7.93,0,0,0,.69,1.67l-2.1,3.45a11.7,11.7,0,0,0,1.65,1.65l3.44-2.1a8.24,8.24,0,0,0,1.68.69l1,3.93a11.46,11.46,0,0,0,1.17.06,11.12,11.12,0,0,0,1.16-.06l1-3.93a7.93,7.93,0,0,0,1.67-.69l3.45,2.1a11.7,11.7,0,0,0,1.65-1.65l-2.1-3.45a7.93,7.93,0,0,0,.69-1.67Zm-11.41,2a3.2,3.2,0,1,1,3.2-3.2A3.2,3.2,0,0,1,265.9,103.2Z" style="fill:#263238"></path></g><g id="freepik--light-bulb--inject-42"><path d="M200.11,137.82l-3.38.53a4.34,4.34,0,0,1-4.09-1.58h0l10.87-1.72h0A4.39,4.39,0,0,1,200.11,137.82Z" style="fill:#263238"></path><rect x="191.91" y="128.53" width="11" height="6.28" transform="translate(-18.17 32.5) rotate(-9)" style="fill:#263238"></rect><path d="M209.51,107a15.92,15.92,0,0,0-20-12.85c-6.48,1.77-11.85,9-11.65,15.73A15.91,15.91,0,0,0,185.42,123a13.47,13.47,0,0,1,5.43,6.76h0a.94.94,0,0,0,1,.58l10.22-1.62a.94.94,0,0,0,.78-.88h0a14,14,0,0,1,3.22-8.25A15.89,15.89,0,0,0,209.51,107Z" style="fill:#FF5900"></path><path d="M209.51,107a15.92,15.92,0,0,0-20-12.85c-6.48,1.77-11.85,9-11.65,15.73A15.91,15.91,0,0,0,185.42,123a13.47,13.47,0,0,1,5.43,6.76h0a.94.94,0,0,0,1,.58l10.22-1.62a.94.94,0,0,0,.78-.88h0a14,14,0,0,1,3.22-8.25A15.89,15.89,0,0,0,209.51,107Z" style="fill:#fff;opacity:0.7000000000000001"></path><path d="M202.66,132l-10.34,1.64a1.37,1.37,0,0,1-1.56-1.14h0a1.35,1.35,0,0,1,1.13-1.55l10.35-1.64a1.35,1.35,0,0,1,1.55,1.13h0A1.37,1.37,0,0,1,202.66,132Z" style="fill:#263238"></path><path d="M203.19,135.32,192.84,137a1.37,1.37,0,0,1-1.56-1.14h0a1.36,1.36,0,0,1,1.14-1.55l10.34-1.64a1.37,1.37,0,0,1,1.56,1.13h0A1.37,1.37,0,0,1,203.19,135.32Z" style="fill:#263238"></path><g style="opacity:0.5"><path d="M202.66,132l-10.34,1.64a1.37,1.37,0,0,1-1.56-1.14h0a1.35,1.35,0,0,1,1.13-1.55l10.35-1.64a1.35,1.35,0,0,1,1.55,1.13h0A1.37,1.37,0,0,1,202.66,132Z" style="fill:#fff"></path><path d="M203.19,135.32,192.84,137a1.37,1.37,0,0,1-1.56-1.14h0a1.36,1.36,0,0,1,1.14-1.55l10.34-1.64a1.37,1.37,0,0,1,1.56,1.13h0A1.37,1.37,0,0,1,203.19,135.32Z" style="fill:#fff"></path></g><path d="M203.24,102.54c-.66,2.74-3.34,1.53-6.79.68s-6.39-1-5.72-3.74,4-4.27,7.47-3.43S203.91,99.8,203.24,102.54Z" style="fill:#fff;opacity:0.5"></path><path d="M184.76,91.63l-2.11-5.11a1.43,1.43,0,0,1,.78-1.88h0a1.44,1.44,0,0,1,1.89.78l2.11,5.1a1.44,1.44,0,0,1-.78,1.89h0A1.46,1.46,0,0,1,184.76,91.63Z" style="fill:#FF5900"></path><path d="M211,102.5h0a1.46,1.46,0,0,1,.78-1.89l5.11-2.11a1.43,1.43,0,0,1,1.88.78h0a1.44,1.44,0,0,1-.78,1.89l-5.1,2.11A1.44,1.44,0,0,1,211,102.5Z" style="fill:#FF5900"></path><path d="M168.79,120h0a1.44,1.44,0,0,1,.78-1.89l5.1-2.11a1.44,1.44,0,0,1,1.89.78h0a1.46,1.46,0,0,1-.78,1.89l-5.11,2.11A1.43,1.43,0,0,1,168.79,120Z" style="fill:#FF5900"></path><path d="M200.92,92.41h0a1.44,1.44,0,0,1-.78-1.89l2.11-5.1a1.44,1.44,0,0,1,1.89-.78h0a1.43,1.43,0,0,1,.78,1.88l-2.11,5.11A1.46,1.46,0,0,1,200.92,92.41Z" style="fill:#FF5900"></path><path d="M216.9,120.77l-5.11-2.11a1.46,1.46,0,0,1-.78-1.89h0a1.44,1.44,0,0,1,1.89-.78l5.1,2.11a1.44,1.44,0,0,1,.78,1.89h0A1.43,1.43,0,0,1,216.9,120.77Z" style="fill:#FF5900"></path><path d="M174.67,103.28l-5.1-2.11a1.44,1.44,0,0,1-.78-1.89h0a1.43,1.43,0,0,1,1.88-.78l5.11,2.11a1.46,1.46,0,0,1,.78,1.89h0A1.44,1.44,0,0,1,174.67,103.28Z" style="fill:#FF5900"></path></g><g id="freepik--Character--inject-42"><polygon points="229.25 417.97 222 417.86 221.61 401.03 228.85 401.14 229.25 417.97" style="fill:#ff8b7b"></polygon><path d="M221.73,415.66l7.91.13a.59.59,0,0,1,.59.5l1,6.48a1.11,1.11,0,0,1-1.12,1.27c-2.85-.09-7-.33-10.56-.38-4.2-.07-3.78.1-8.7,0-3-.05-3.61-3.07-2.35-3.33,5.76-1.15,6.34-1.21,11.43-4.16A3.63,3.63,0,0,1,221.73,415.66Z" style="fill:#263238"></path><polygon points="221.61 401.03 221.81 409.71 229.06 409.82 228.86 401.15 221.61 401.03" style="opacity:0.2"></polygon><path d="M220.45,416.31a.14.14,0,0,0,.1-.14.17.17,0,0,0-.09-.17c-.34-.18-3.31-1.7-4.17-1.23a.53.53,0,0,0-.27.46h0a1,1,0,0,0,.35.84c.82.71,2.89.46,4,.25Zm-3.92-1.26c.54-.18,2.14.45,3.31,1-1.59.24-2.79.16-3.25-.25a.65.65,0,0,1-.23-.55.19.19,0,0,1,.11-.18Z" style="fill:#FF5900"></path><path d="M220.45,416.31l0,0a.16.16,0,0,0,.06-.16,5.13,5.13,0,0,0-1.22-2.81,1.33,1.33,0,0,0-1-.31h0c-.47,0-.6.28-.63.47-.1.82,1.69,2.42,2.58,2.82A.2.2,0,0,0,220.45,416.31Zm-2.21-2.92a.42.42,0,0,1,.18,0h0a.92.92,0,0,1,.7.22,4.2,4.2,0,0,1,1,2.26c-.92-.55-2.14-1.81-2.07-2.3C218.09,413.51,218.1,413.43,218.24,413.39Zm.15-.21h0Z" style="fill:#FF5900"></path><path d="M233.64,317.75c5.89-42.79,13.24-60.17,9.9-81l-21.57.35s-10.09,57.08-7.94,81.7c2.23,25.59,5.49,85.16,5.49,85.16l11.68.19S238,346.34,233.64,317.75Z" style="fill:#FF5900"></path><path d="M243.9,256.23c-1.17,11.54-4.31,24.7-7.56,43.93C233.36,283.91,232.54,264.71,243.9,256.23Z" style="opacity:0.2"></path><polygon points="217.74 401.03 218.71 406.7 231.56 406.96 232.07 401.6 217.74 401.03" style="fill:#FF5900"></polygon><polygon points="270.33 417.97 263.07 417.86 260.67 401.03 267.93 401.14 270.33 417.97" style="fill:#ff8b7b"></polygon><path d="M262.55,415.66l7.91.13a.56.56,0,0,1,.56.5l.69,6.48a1.18,1.18,0,0,1-1.19,1.27c-2.85-.09-3.75-.33-7.33-.38-4.2-.07-2.26.1-7.18,0-3-.05-3.45-3.06-2.18-3.33,4-.84,5.09-2.45,6.91-4.16A2.58,2.58,0,0,1,262.55,415.66Z" style="fill:#263238"></path><polygon points="260.68 401.03 261.91 409.71 269.17 409.82 267.94 401.15 260.68 401.03" style="opacity:0.2"></polygon><path d="M264,416.21a.16.16,0,0,0,.16-.08.2.2,0,0,0,0-.2c-.25-.28-2.44-2.7-3.44-2.56a.55.55,0,0,0-.43.32h0a1,1,0,0,0,0,.9c.49.94,2.53,1.42,3.71,1.62Zm-3.19-2.5c.58,0,1.84,1.14,2.72,2.07-1.59-.33-2.68-.82-3-1.35a.65.65,0,0,1,0-.59.21.21,0,0,1,.17-.13Z" style="fill:#FF5900"></path><path d="M264,416.21h0a.16.16,0,0,0,.12-.12,4.84,4.84,0,0,0,0-3,1.24,1.24,0,0,0-.78-.62h0c-.46-.12-.67.05-.77.22-.42.72.64,2.8,1.32,3.48A.16.16,0,0,0,264,416.21Zm-.93-3.45.18,0h0a.94.94,0,0,1,.58.46,4.14,4.14,0,0,1,.09,2.43c-.64-.82-1.3-2.4-1-2.83C262.86,412.83,262.9,412.76,263.05,412.76Zm.23-.13h0Z" style="fill:#FF5900"></path><path d="M264.68,317.75c4-42,3.22-61.68-1.11-81.45l-26.66.81s3.27,57.08,8.28,81.7c5.2,25.59,13.36,85.16,13.36,85.16l11.69.19S272.36,346.34,264.68,317.75Z" style="fill:#FF5900"></path><polygon points="256.84 401.03 257.61 406.7 270.72 406.96 271.46 401.6 256.84 401.03" style="fill:#FF5900"></polygon><path d="M236,178.73l-.59.54-.5.45-1,.82c-.67.53-1.34,1-2,1.5a47.41,47.41,0,0,1-4.21,2.67,45.55,45.55,0,0,1-9.25,3.91,39.69,39.69,0,0,1-10.09,1.63c-.86,0-1.72,0-2.58,0l-1.29-.08-.37,0-.61-.06a10.12,10.12,0,0,1-1.36-.29,7.65,7.65,0,0,1-3.28-1.94,7.46,7.46,0,0,1-1.88-3.48,9.66,9.66,0,0,1,.17-4.59,23.08,23.08,0,0,1,2.18-5.19,46.59,46.59,0,0,1,2.55-4.12c1.77-2.6,3.63-5,5.56-7.35a161.35,161.35,0,0,1,12.26-13.21l4.47,3.89c-3.31,4.75-6.62,9.61-9.72,14.43-1.53,2.43-3,4.86-4.35,7.28-.65,1.22-1.26,2.42-1.78,3.58a13,13,0,0,0-1,3c-.08.32.08.5,0-.21a3.18,3.18,0,0,0-.85-1.55,3.22,3.22,0,0,0-1.37-.88c-.09,0-.28-.06-.28-.08h.11l.92,0c.61,0,1.23-.07,1.83-.16a32.1,32.1,0,0,0,7.22-1.7,42.09,42.09,0,0,0,6.88-3.22c1.11-.64,2.2-1.32,3.24-2.06.53-.36,1-.74,1.53-1.12l.73-.56.57-.47Z" style="fill:#ce7a63"></path><path d="M209.52,177.8,213,192.35s18.89-3.13,27-12.63c5.72-6.7-2-12.44-14-10.09C218.61,171.09,209.52,177.8,209.52,177.8Z" style="fill:#FF5900"></path><path d="M209.52,177.8,213,192.35s18.89-3.13,27-12.63c5.72-6.7-2-12.44-14-10.09C218.61,171.09,209.52,177.8,209.52,177.8Z" style="fill:#fff;opacity:0.7000000000000001"></path><path d="M218.61,152l.28-9.09,8.18,3.08s-1.64,8.48-4.34,8.51Z" style="fill:#ce7a63"></path><polygon points="225.15 137.73 230.28 141.35 227.06 146 218.89 142.92 225.15 137.73" style="fill:#ce7a63"></polygon><path d="M221.44,238.09l5.95,3,7.42-4,7.38,5,21.44-4c.3-3.77-.57-16,.08-31.64A199.63,199.63,0,0,1,267.9,172c.19-.85.38-1.69.58-2.55,0,0-2.13-.43-5.2-.88-2.54-.37-5.73-.75-8.86-.9a155.32,155.32,0,0,0-17.93,0c-2.76.25-5.45.71-7.6,1.12-2.75.56-4.37,1-4.37,1S214.13,193.72,221.44,238.09Z" style="fill:#263238"></path><path d="M263.71,206.46A199.62,199.62,0,0,1,267.9,172c-2.82-.24-7.64,0-8.44,4.59C258.6,181.52,259.68,193,263.71,206.46Z" style="opacity:0.30000000000000004"></path><path d="M270.93,174.53c.83,1.29,1.53,2.43,2.22,3.66s1.38,2.43,2,3.66q2,3.69,3.65,7.54a78.79,78.79,0,0,1,5.28,16.33l.1.54.06.27.07.45a11.53,11.53,0,0,1,.14,1.8,15,15,0,0,1-.33,3,25.1,25.1,0,0,1-1.55,4.74,51.16,51.16,0,0,1-4.25,7.68,88.6,88.6,0,0,1-10.51,12.9l-4.67-3.65c2.56-4.51,5.16-9.14,7.29-13.72a50.49,50.49,0,0,0,2.7-6.75,14.68,14.68,0,0,0,.63-2.95,5.33,5.33,0,0,0,0-1,.44.44,0,0,0-.06-.19s0,0,0,0l-.06-.22-.13-.43-.5-1.72-.6-1.73c-.39-1.16-.84-2.32-1.3-3.47-.93-2.31-2-4.61-3.07-6.89s-2.28-4.55-3.49-6.81c-.6-1.12-1.22-2.24-1.86-3.35L260.83,181Z" style="fill:#ce7a63"></path><path d="M258,183.86c1.78,5.28,8.57,16.44,8.57,16.44l16-8.85s-7-20.36-14.08-22C260.62,167.74,254.78,174.29,258,183.86Z" style="fill:#FF5900"></path><path d="M258,183.86c1.78,5.28,8.57,16.44,8.57,16.44l16-8.85s-7-20.36-14.08-22C260.62,167.74,254.78,174.29,258,183.86Z" style="fill:#fff;opacity:0.7000000000000001"></path><path d="M265.28,231.71l-7.86-1.37,4,9.09s7.17,0,6.84-3.74Z" style="fill:#ce7a63"></path><polygon points="251.56 234.91 255.25 242.25 261.46 239.43 257.43 230.34 251.56 234.91" style="fill:#ce7a63"></polygon><path d="M237.6,183.71s-6.44-4.06-2.44-15.86l1.33-.14a155.32,155.32,0,0,1,17.93,0c.7,0,1.41.08,2.11.13A146.85,146.85,0,0,0,237.6,183.71Z" style="fill:#FF5900"></path><path d="M237.6,183.71s-6.44-4.06-2.44-15.86l1.33-.14a155.32,155.32,0,0,1,17.93,0c.7,0,1.41.08,2.11.13A146.85,146.85,0,0,0,237.6,183.71Z" style="fill:#fff;opacity:0.7000000000000001"></path><path d="M243.75,172.58c10-.18,11.36-4.83,11.36-4.83-3.91-3.85-2.41-14.38-1.08-20.16l-4.8,4L242.7,157a22.6,22.6,0,0,1,.42,2.64c.35,3.54-.57,6.77-5.78,8,0,0-6.19,4.1,3,4.84Z" style="fill:#ce7a63"></path><path d="M242.7,157a22.6,22.6,0,0,1,.42,2.64c2.43-.49,5.69-3.09,6-5.58a10.79,10.79,0,0,0,.08-2.49Z" style="opacity:0.2"></path><path d="M232,131.52c-3.09,2.94-1.55,14,3.9,14.6S237.85,126,232,131.52Z" style="fill:#263238"></path><path d="M252.63,136.9c.94,7.79,1.89,12.29-1.24,17.09a10.21,10.21,0,0,1-18-1.53c-2.91-6.55-4-18.19,3-22.89A10.32,10.32,0,0,1,252.63,136.9Z" style="fill:#ce7a63"></path><path d="M258.55,126.78c4.06.35,3.74,5.86,2.41,9.76-1.85,5.42-5.68,10.63-8.76,9.5-1.24-.16-3.5,2.63-4.4-.12-.47-1.42,1.41-4,1.44-6.51s-1.8-4.95-1.67-6.11c-4.06-1-14.1,6.63-20.84-1.09-3-3.46-2.14-16.11,4.73-13.4,4.34,1.72,10.39,6.78,14.87,4C253.24,118.51,260.62,121.39,258.55,126.78Z" style="fill:#263238"></path><path d="M256.93,143.88a8.44,8.44,0,0,1-3.65,4.33c-2.15,1.19-3.4-.75-2.95-3.2.41-2.21,2-5.48,4.24-5.65S257.79,141.58,256.93,143.88Z" style="fill:#ce7a63"></path><path d="M241.45,141.59c.11.62-.12,1.2-.53,1.29s-.83-.34-.94-1,.12-1.21.53-1.3S241.33,141,241.45,141.59Z" style="fill:#263238"></path><path d="M234.42,143.13c.12.62-.12,1.2-.52,1.29s-.83-.34-1-1,.12-1.21.53-1.3S234.31,142.5,234.42,143.13Z" style="fill:#263238"></path><path d="M236.71,143a24,24,0,0,1-2,6,3.62,3.62,0,0,0,3.07-.09Z" style="fill:#ba4d3c"></path><path d="M243.2,138.82a.39.39,0,0,0,.16-.1.38.38,0,0,0,0-.53,3.59,3.59,0,0,0-3.26-.87.39.39,0,0,0-.26.47.38.38,0,0,0,.47.25,2.83,2.83,0,0,1,2.55.71A.36.36,0,0,0,243.2,138.82Z" style="fill:#263238"></path><path d="M231,141.36a.41.41,0,0,0,.24-.26A3.14,3.14,0,0,1,233,139a.37.37,0,0,0-.25-.7h0a3.89,3.89,0,0,0-2.24,2.63.38.38,0,0,0,.27.46A.41.41,0,0,0,231,141.36Z" style="fill:#263238"></path><path d="M228.73,143.22l.67,3a.9.9,0,0,0,.87.7.69.69,0,0,0,.2,0l4.83-1.08a.89.89,0,0,0,.67-1.06l-.55-2.43a1.77,1.77,0,0,1,1.82-.44l.55,2.46a.9.9,0,0,0,.87.7.63.63,0,0,0,.19,0l6.28-1.4a.9.9,0,0,0,.67-1.07l-.68-3a.89.89,0,0,0-.87-.7l-.19,0-6.27,1.41a.89.89,0,0,0-.68,1.06h0a2.3,2.3,0,0,0-1.82.4h0a.9.9,0,0,0-.87-.7.63.63,0,0,0-.19,0l-4.83,1.08A.89.89,0,0,0,228.73,143.22Zm9.17-2.43,6.27-1.41h.08a.38.38,0,0,1,.37.29l.67,3a.36.36,0,0,1,0,.28.35.35,0,0,1-.23.16l-6.27,1.41h-.08a.38.38,0,0,1-.36-.29l-.68-3A.36.36,0,0,1,237.9,140.79Zm-8.39,1.88,4.83-1.09h.08a.39.39,0,0,1,.37.29l.67,3a.34.34,0,0,1-.05.28.35.35,0,0,1-.23.16l-4.83,1.09h-.08a.38.38,0,0,1-.36-.29l-.68-3A.37.37,0,0,1,229.51,142.67Z" style="fill:#FF5900"></path><path d="M228.73,143.22l.67,3a.9.9,0,0,0,.87.7.69.69,0,0,0,.2,0l4.83-1.08a.89.89,0,0,0,.67-1.06l-.55-2.43a1.77,1.77,0,0,1,1.82-.44l.55,2.46a.9.9,0,0,0,.87.7.63.63,0,0,0,.19,0l6.28-1.4a.9.9,0,0,0,.67-1.07l-.68-3a.89.89,0,0,0-.87-.7l-.19,0-6.27,1.41a.89.89,0,0,0-.68,1.06h0a2.3,2.3,0,0,0-1.82.4h0a.9.9,0,0,0-.87-.7.63.63,0,0,0-.19,0l-4.83,1.08A.89.89,0,0,0,228.73,143.22Zm9.17-2.43,6.27-1.41h.08a.38.38,0,0,1,.37.29l.67,3a.36.36,0,0,1,0,.28.35.35,0,0,1-.23.16l-6.27,1.41h-.08a.38.38,0,0,1-.36-.29l-.68-3A.36.36,0,0,1,237.9,140.79Zm-8.39,1.88,4.83-1.09h.08a.39.39,0,0,1,.37.29l.67,3a.34.34,0,0,1-.05.28.35.35,0,0,1-.23.16l-4.83,1.09h-.08a.38.38,0,0,1-.36-.29l-.68-3A.37.37,0,0,1,229.51,142.67Z" style="fill:#fff;opacity:0.5"></path><path d="M238.1,149.74c1.4.22,4.43-4.31,5.56-1.17s.7,10.35-1,8.43c0,0-.06,2.55-2,.32,0,0,.45,2-1.61,0,0,0,.09,1.64-2.16-.52S231.41,148.71,238.1,149.74Z" style="fill:#263238"></path><path d="M238.1,149.74c1.4.22,4.43-4.31,5.56-1.17s.7,10.35-1,8.43c0,0-.06,2.55-2,.32,0,0,.45,2-1.61,0,0,0,.09,1.64-2.16-.52S231.41,148.71,238.1,149.74Z" style="fill:#fff;opacity:0.4"></path><path d="M237.13,151.57a5.5,5.5,0,0,0,4-1.51.19.19,0,0,0-.28-.26,5.23,5.23,0,0,1-4.43,1.34.18.18,0,0,0-.21.15.21.21,0,0,0,.16.22Z" style="fill:#263238"></path></g></svg>